# 3ds Max Wavefront OBJ Exporter v0.99 - (c)2007 guruware
# File Created: 03.04.2025 20:22:33

mtllib lampara_texturizada.mtl

#
# object ModernLamp_Single_็__ๆ_นไ___003
#

v  -0.0556 2.9000 0.0525
v  0.0494 2.9000 0.0525
v  0.0494 2.9000 -0.0525
v  -0.0556 2.9000 -0.0525
v  0.0521 2.8972 0.0525
v  0.0521 2.8878 0.0525
v  0.0521 2.8878 -0.0525
v  0.0521 2.8972 -0.0525
v  0.0494 2.8850 0.0525
v  -0.0556 2.8850 0.0525
v  0.0402 2.8850 0.0507
v  -0.0464 2.8850 0.0507
v  -0.0584 2.8972 -0.0525
v  -0.0584 2.8878 -0.0525
v  -0.0584 2.8878 0.0525
v  -0.0584 2.8972 0.0525
v  0.1042 0.0000 0.1187
v  0.1042 0.0789 0.1187
v  -0.1104 0.0789 0.1187
v  -0.1104 0.0000 0.1187
v  -0.0556 2.8878 -0.0553
v  -0.0556 2.8972 -0.0553
v  0.0494 2.8972 -0.0553
v  0.0494 2.8878 -0.0553
v  0.0476 2.8850 -0.0433
v  0.0494 2.8850 -0.0525
v  0.0476 2.8850 0.0433
v  0.1156 0.0000 -0.1073
v  0.1156 0.0789 -0.1073
v  0.1156 0.0789 0.1073
v  0.1156 0.0000 0.1073
v  -0.0531 0.6000 0.0413
v  -0.0531 2.8834 0.0413
v  -0.0531 2.8834 -0.0413
v  -0.0531 0.6000 -0.0413
v  0.0402 2.8850 -0.0507
v  -0.0768 0.6000 0.0737
v  -0.0768 0.6000 -0.0737
v  -0.0813 0.5955 -0.0782
v  -0.0879 0.5889 -0.0733
v  -0.0879 0.5889 0.0733
v  -0.0813 0.5955 0.0782
v  0.1045 0.0900 -0.1076
v  0.0898 0.0900 -0.0929
v  0.0817 0.0900 -0.0733
v  0.0898 0.0900 0.0929
v  0.0817 0.0900 0.0733
v  0.1045 0.0900 0.1076
v  -0.1107 0.0900 -0.1076
v  -0.0960 0.0900 -0.0929
v  -0.0765 0.0900 -0.0848
v  0.0702 0.0900 -0.0848
v  -0.0765 0.5889 -0.0848
v  0.0702 0.5889 -0.0848
v  -0.1104 0.0000 -0.1187
v  0.1042 0.0000 -0.1187
v  0.1123 0.0000 -0.1154
v  -0.1219 0.0000 0.1073
v  0.1123 0.0000 0.1154
v  -0.1185 0.0000 0.1154
v  -0.1185 0.0000 -0.1154
v  -0.1219 0.0000 -0.1073
v  0.0817 0.5889 -0.0733
v  0.0817 0.5889 0.0733
v  -0.1107 0.0900 0.1076
v  -0.0960 0.0900 0.0929
v  -0.0879 0.0900 0.0733
v  -0.0879 0.0900 -0.0733
v  -0.0765 0.5889 0.0848
v  -0.0765 0.0900 0.0848
v  0.0702 0.0900 0.0848
v  0.0702 0.5889 0.0848
v  -0.1104 0.0789 -0.1187
v  0.1042 0.0789 -0.1187
v  -0.0539 2.8850 0.0433
v  -0.0556 2.8850 -0.0525
v  -0.0464 2.8850 -0.0507
v  0.0706 0.6000 0.0737
v  0.0530 0.6000 0.0561
v  0.0382 0.6000 0.0500
v  -0.0445 0.6000 0.0500
v  -0.0592 0.6000 0.0561
v  -0.0592 0.6000 -0.0561
v  -0.0445 0.6000 -0.0500
v  0.0382 0.6000 -0.0500
v  0.0530 0.6000 -0.0561
v  0.0706 0.6000 -0.0737
v  0.0469 0.6000 -0.0413
v  0.0469 0.6000 0.0413
v  0.0751 0.5955 -0.0782
v  0.1090 0.0855 -0.1121
v  -0.1152 0.0855 -0.1121
v  0.0751 0.5955 0.0782
v  0.1090 0.0855 0.1121
v  -0.1219 0.0789 -0.1073
v  -0.1219 0.0789 0.1073
v  -0.1152 0.0855 0.1121
v  -0.0846 0.0900 0.0815
v  -0.0846 0.0900 -0.0815
v  0.0783 0.0900 -0.0815
v  0.0783 0.0900 0.0815
v  -0.0846 0.5889 0.0815
v  -0.0846 0.5889 -0.0815
v  0.0783 0.5889 -0.0815
v  0.0783 0.5889 0.0815
v  -0.1185 0.0789 -0.1154
v  0.1123 0.0789 -0.1154
v  0.1123 0.0789 0.1154
v  -0.1185 0.0789 0.1154
v  -0.0445 2.8834 -0.0500
v  0.0382 2.8834 -0.0500
v  0.0469 2.8834 -0.0413
v  0.0469 2.8834 0.0413
v  0.0382 2.8834 0.0500
v  -0.0445 2.8834 0.0500
v  -0.0539 2.8850 -0.0433
v  -0.0556 2.8972 0.0553
v  0.0494 2.8972 0.0553
v  -0.0556 2.8878 0.0553
v  0.0494 2.8878 0.0553
v  -0.0531 2.6939 0.0400
v  -0.0531 2.7664 0.0400
v  -0.6794 2.7664 0.0400
v  -0.6794 2.6939 0.0400
v  -0.6794 2.7702 -0.0362
v  -0.6794 2.7702 0.0362
v  -0.0531 2.7702 0.0362
v  -0.0531 2.7702 -0.0362
v  -0.6831 2.7664 0.0362
v  -0.6831 2.7664 -0.0362
v  -0.6831 2.6939 -0.0362
v  -0.6831 2.6939 0.0362
v  -0.0531 2.7664 -0.0400
v  -0.0531 2.6939 -0.0400
v  -0.6794 2.6939 -0.0400
v  -0.6794 2.7664 -0.0400
v  -0.6794 2.6902 0.0362
v  -0.6794 2.6902 -0.0362
v  -0.0531 2.6902 -0.0362
v  -0.0531 2.6902 0.0362
v  -0.3903 2.2122 0.1828
v  -0.4231 2.2402 0.1500
v  -0.7231 2.2402 0.1500
v  -0.4938 2.2122 0.1828
v  -0.7559 2.2122 0.1828
v  -0.6524 2.2122 0.1828
v  -0.6458 2.2165 0.1778
v  -0.6124 2.2260 0.1667
v  -0.5731 2.2293 0.1628
v  -0.5338 2.2260 0.1667
v  -0.5005 2.2165 0.1778
v  -0.4704 2.1855 0.1828
v  -0.3903 2.1855 0.1828
v  -0.4782 2.2022 0.1828
v  -0.7559 2.1855 0.1828
v  -0.6759 2.1855 0.1828
v  -0.6680 2.2022 0.1828
v  -0.3903 2.2122 -0.0793
v  -0.3903 2.2122 -0.1828
v  -0.4231 2.2402 -0.1500
v  -0.4064 2.2260 -0.0393
v  -0.3903 2.2122 0.0793
v  -0.3953 2.2165 0.0727
v  -0.4064 2.2260 0.0393
v  -0.4104 2.2293 -0.0000
v  -0.3953 2.2165 -0.0727
v  -0.3903 2.1855 -0.1828
v  -0.3903 2.1855 -0.1027
v  -0.3903 2.2022 -0.0949
v  -0.3903 2.1855 0.1027
v  -0.3903 2.2022 0.0949
v  -0.7559 2.2122 -0.1828
v  -0.7231 2.2402 -0.1500
v  -0.6524 2.2122 -0.1828
v  -0.4938 2.2122 -0.1828
v  -0.5005 2.2165 -0.1778
v  -0.6458 2.2165 -0.1778
v  -0.5338 2.2260 -0.1667
v  -0.5731 2.2293 -0.1628
v  -0.6124 2.2260 -0.1667
v  -0.7559 2.1855 -0.1828
v  -0.6759 2.1855 -0.1828
v  -0.6680 2.2022 -0.1828
v  -0.4782 2.2022 -0.1828
v  -0.4704 2.1855 -0.1828
v  -0.7510 2.2165 0.0727
v  -0.7559 2.2122 0.0793
v  -0.7510 2.2165 -0.0727
v  -0.7398 2.2260 -0.0393
v  -0.7359 2.2293 -0.0000
v  -0.7559 2.2122 -0.0793
v  -0.7398 2.2260 0.0393
v  -0.7559 2.1855 0.1027
v  -0.7559 2.2022 0.0949
v  -0.7559 2.1855 -0.1027
v  -0.7559 2.2022 -0.0949
v  -0.5338 2.2250 0.1657
v  -0.5731 2.2283 0.1618
v  -0.6124 2.2250 0.1657
v  -0.4938 2.2113 0.1818
v  -0.6458 2.2155 0.1769
v  -0.6524 2.2113 0.1818
v  -0.7552 2.2117 0.1823
v  -0.7225 2.2394 0.1493
v  -0.4237 2.2394 0.1493
v  -0.3910 2.2117 0.1823
v  -0.5005 2.2155 0.1769
v  -0.4704 2.1847 0.1818
v  -0.4782 2.2015 0.1818
v  -0.3910 2.1851 0.1823
v  -0.6759 2.1847 0.1818
v  -0.7552 2.1851 0.1823
v  -0.6680 2.2015 0.1818
v  -0.4076 2.2253 0.0388
v  -0.3965 2.2158 0.0722
v  -0.3915 2.2116 0.0788
v  -0.4115 2.2287 -0.0005
v  -0.4237 2.2396 -0.1502
v  -0.3910 2.2122 -0.1825
v  -0.4076 2.2253 -0.0398
v  -0.3916 2.2117 -0.0797
v  -0.3965 2.2158 -0.0731
v  -0.3918 2.2022 -0.0949
v  -0.3918 2.1855 -0.1027
v  -0.3910 2.1859 -0.1823
v  -0.3918 2.2022 0.0949
v  -0.3918 2.1855 0.1027
v  -0.6124 2.2254 -0.1665
v  -0.5731 2.2288 -0.1626
v  -0.5338 2.2254 -0.1665
v  -0.4938 2.2120 -0.1823
v  -0.5005 2.2159 -0.1777
v  -0.7553 2.2122 -0.1825
v  -0.7225 2.2396 -0.1502
v  -0.6524 2.2120 -0.1823
v  -0.6458 2.2159 -0.1777
v  -0.6680 2.2030 -0.1818
v  -0.6759 2.1862 -0.1818
v  -0.7552 2.1859 -0.1823
v  -0.4782 2.2030 -0.1818
v  -0.4704 2.1862 -0.1818
v  -0.7386 2.2253 0.0388
v  -0.7347 2.2287 -0.0005
v  -0.7386 2.2253 -0.0398
v  -0.7546 2.2117 -0.0797
v  -0.7498 2.2158 -0.0731
v  -0.7547 2.2116 0.0788
v  -0.7498 2.2158 0.0722
v  -0.7544 2.1855 0.1027
v  -0.7544 2.2022 0.0949
v  -0.7544 2.2022 -0.0949
v  -0.7544 2.1855 -0.1027
v  -0.3921 2.6402 -0.1810
v  -0.7541 2.6402 -0.1810
v  -0.7541 2.6402 0.1810
v  -0.3921 2.6402 0.1810
v  -0.3903 2.6220 -0.1810
v  -0.3903 2.6384 -0.1810
v  -0.3903 2.6384 0.1810
v  -0.3903 2.6220 0.1810
v  -0.4176 2.6202 0.1555
v  -0.3921 2.6202 0.1810
v  -0.7541 2.6202 0.1810
v  -0.7286 2.6202 0.1555
v  -0.7559 2.6384 0.1810
v  -0.7559 2.6384 -0.1810
v  -0.7559 2.6220 -0.1810
v  -0.7559 2.6220 0.1810
v  -0.4286 2.2402 0.1500
v  -0.4286 2.6147 0.1500
v  -0.7176 2.6147 0.1500
v  -0.7176 2.2402 0.1500
v  -0.7541 2.6220 -0.1828
v  -0.7541 2.6384 -0.1828
v  -0.3921 2.6384 -0.1828
v  -0.3921 2.6220 -0.1828
v  -0.7541 2.6202 -0.1810
v  -0.7286 2.6202 -0.1555
v  -0.4176 2.6202 -0.1555
v  -0.3921 2.6202 -0.1810
v  -0.7231 2.2402 -0.1445
v  -0.7215 2.2402 -0.1484
v  -0.7176 2.2402 -0.1500
v  -0.7215 2.2402 0.1484
v  -0.4286 2.2402 -0.1500
v  -0.4247 2.2402 -0.1484
v  -0.4231 2.2402 0.1445
v  -0.4231 2.2402 -0.1445
v  -0.4247 2.2402 0.1484
v  -0.7231 2.2402 0.1445
v  -0.4231 2.6147 0.1445
v  -0.4231 2.6147 -0.1445
v  -0.4286 2.6147 -0.1500
v  -0.7176 2.6147 -0.1500
v  -0.7215 2.6147 -0.1484
v  -0.7231 2.6178 -0.1500
v  -0.7231 2.6186 -0.1516
v  -0.7231 2.6147 -0.1445
v  -0.7247 2.6186 -0.1500
v  -0.4231 2.6178 -0.1500
v  -0.4215 2.6186 -0.1500
v  -0.4247 2.6147 -0.1484
v  -0.4231 2.6186 -0.1516
v  -0.4247 2.6147 0.1484
v  -0.4231 2.6178 0.1500
v  -0.4231 2.6186 0.1516
v  -0.4215 2.6186 0.1500
v  -0.7231 2.6178 0.1500
v  -0.7215 2.6147 0.1484
v  -0.7231 2.6186 0.1516
v  -0.7247 2.6186 0.1500
v  -0.7231 2.6147 0.1445
v  -0.7541 2.6384 0.1828
v  -0.3921 2.6384 0.1828
v  -0.7541 2.6220 0.1828
v  -0.3921 2.6220 0.1828
v  -0.0045 2.8972 -0.0463
v  -0.0222 2.8972 -0.0428
v  -0.0222 2.9844 -0.0428
v  -0.0045 2.9844 -0.0463
v  0.0283 2.8972 -0.0328
v  0.0283 2.9844 -0.0328
v  0.0383 2.9844 -0.0177
v  0.0383 2.8972 -0.0177
v  0.0419 2.9844 -0.0000
v  0.0419 2.8972 -0.0000
v  0.0383 2.9844 0.0177
v  0.0383 2.8972 0.0177
v  0.0283 2.9844 0.0328
v  0.0283 2.8972 0.0328
v  0.0133 2.9844 0.0428
v  0.0133 2.8972 0.0428
v  -0.0045 2.8972 0.0463
v  -0.0045 2.9844 0.0463
v  -0.0222 2.9844 0.0428
v  -0.0222 2.8972 0.0428
v  -0.0372 2.9844 0.0328
v  -0.0372 2.8972 0.0328
v  -0.0472 2.9844 0.0177
v  -0.0472 2.8972 0.0177
v  -0.0508 2.9844 -0.0000
v  -0.0508 2.8972 -0.0000
v  -0.0472 2.9844 -0.0177
v  -0.0472 2.8972 -0.0177
v  -0.0372 2.9844 -0.0328
v  -0.0372 2.8972 -0.0328
v  0.0133 2.9844 -0.0428
v  0.0133 2.8972 -0.0428
v  -0.0045 2.9883 -0.0447
v  0.0126 2.9883 -0.0413
v  0.0111 2.9899 -0.0376
v  -0.0045 2.9899 -0.0407
v  0.0271 2.9883 -0.0316
v  0.0243 2.9899 -0.0288
v  0.0368 2.9883 -0.0171
v  0.0332 2.9899 -0.0156
v  0.0402 2.9883 -0.0000
v  0.0363 2.9899 -0.0000
v  0.0368 2.9883 0.0171
v  0.0332 2.9899 0.0156
v  0.0271 2.9883 0.0316
v  0.0243 2.9899 0.0288
v  0.0126 2.9883 0.0413
v  0.0111 2.9899 0.0376
v  -0.0045 2.9883 0.0447
v  -0.0045 2.9899 0.0407
v  -0.0216 2.9883 0.0413
v  -0.0200 2.9899 0.0376
v  -0.0360 2.9883 0.0316
v  -0.0333 2.9899 0.0288
v  -0.0457 2.9883 0.0171
v  -0.0421 2.9899 0.0156
v  -0.0491 2.9883 -0.0000
v  -0.0452 2.9899 -0.0000
v  -0.0457 2.9883 -0.0171
v  -0.0421 2.9899 -0.0156
v  -0.0360 2.9883 -0.0316
v  -0.0333 2.9899 -0.0288
v  -0.0216 2.9883 -0.0413
v  -0.0200 2.9899 -0.0376
v  -0.5631 2.6402 -0.0000
v  -0.5731 2.6402 -0.0100
v  -0.5731 2.6902 -0.0100
v  -0.5631 2.6902 -0.0000
v  -0.5731 2.6902 0.0100
v  -0.5731 2.6402 0.0100
v  -0.5831 2.6902 -0.0000
v  -0.5831 2.6402 -0.0000
# 388 vertices

vn -0.3416 0.8756 0.3416
vn 0.3416 0.8756 0.3416
vn 0.3416 0.8756 -0.3416
vn -0.3416 0.8756 -0.3416
vn 0.8756 0.3416 0.3416
vn 0.8756 -0.3415 0.3416
vn 0.8756 -0.3415 -0.3416
vn 0.8756 0.3416 -0.3416
vn 0.0000 -1.0000 -0.0000
vn 0.2663 -0.9264 0.2663
vn -0.2662 -0.9264 0.2663
vn 0.0000 -1.0000 -0.0001
vn -0.8756 0.3416 -0.3416
vn -0.8756 -0.3416 -0.3416
vn -0.8756 -0.3416 0.3416
vn -0.8756 0.3416 0.3416
vn 0.1951 0.0000 0.9808
vn 0.1576 0.3440 0.9256
vn -0.1576 0.3440 0.9256
vn -0.1951 0.0000 0.9808
vn -0.3416 -0.3416 -0.8756
vn -0.3416 0.3416 -0.8756
vn 0.3416 0.3416 -0.8756
vn 0.3416 -0.3416 -0.8756
vn 0.2663 -0.9264 -0.2663
vn 0.9808 0.0000 -0.1951
vn 0.9256 0.3440 -0.1576
vn 0.9256 0.3440 0.1576
vn 0.9808 0.0000 0.1951
vn -0.9239 0.0000 0.3827
vn -0.9239 0.0000 -0.3827
vn -0.5526 0.8334 0.0000
vn -0.4723 0.7442 -0.4723
vn -0.9256 0.3440 -0.1576
vn -0.9256 0.3440 0.1576
vn -0.4723 0.7442 0.4723
vn 0.3002 0.9054 -0.3002
vn 0.0000 1.0000 -0.0000
vn 0.3002 0.9054 0.3002
vn -0.3002 0.9054 -0.3002
vn -0.1576 0.3440 -0.9256
vn 0.1576 0.3440 -0.9256
vn 0.1951 0.0000 -0.9808
vn -0.1951 0.0000 -0.9808
vn -0.3002 0.9054 0.3002
vn -0.9808 0.0000 0.1951
vn -0.9808 0.0000 -0.1951
vn -0.2662 -0.9264 -0.2663
vn 0.0000 0.8334 0.5526
vn 0.0000 0.8334 -0.5526
vn 0.5526 0.8334 0.0000
vn 0.4723 0.7442 -0.4723
vn 0.4723 0.7442 0.4723
vn -0.6787 0.2806 0.6787
vn -0.6787 0.2806 -0.6787
vn 0.6787 0.2806 -0.6787
vn 0.6787 0.2806 0.6787
vn -0.7071 0.0000 0.7071
vn -0.7071 0.0000 -0.7071
vn 0.7071 0.0000 0.7071
vn 0.7071 0.0000 -0.7071
vn -0.3827 0.0000 -0.9239
vn 0.3827 0.0000 -0.9239
vn 0.9239 0.0000 -0.3827
vn 0.9239 0.0000 0.3827
vn 0.3827 0.0000 0.9239
vn -0.3827 0.0000 0.9239
vn -0.4513 -0.7699 -0.4513
vn 0.4513 -0.7699 -0.4513
vn 0.4513 -0.7699 0.4513
vn -0.4513 -0.7699 0.4513
vn 0.0000 -0.4230 0.9061
vn -0.9061 -0.4231 0.0000
vn 0.0000 -0.4230 -0.9061
vn 0.9061 -0.4230 0.0000
vn -0.3416 0.3416 0.8756
vn 0.3416 0.3416 0.8756
vn -0.3416 -0.3416 0.8756
vn 0.3416 -0.3416 0.8756
vn 0.0000 -0.3827 0.9239
vn 0.0000 0.3827 0.9239
vn 0.0000 0.9239 0.3827
vn 0.0000 0.9239 -0.3827
vn 0.0000 0.3827 -0.9239
vn 0.0000 -0.3827 -0.9239
vn -0.3416 -0.8756 0.3416
vn -0.3416 -0.8756 -0.3416
vn 0.0000 -0.9239 -0.3827
vn 0.0000 -0.9239 0.3827
vn 0.0000 0.3076 0.9515
vn -0.0000 0.7614 0.6483
vn 0.0000 0.6506 0.7594
vn 0.0000 -0.0000 1.0000
vn 0.7594 0.6506 0.0000
vn 0.9515 0.3076 -0.0000
vn 0.6483 0.7614 0.0000
vn 1.0000 -0.0000 -0.0000
vn 0.0000 0.3076 -0.9515
vn 0.0000 0.7614 -0.6483
vn 0.0000 0.6506 -0.7594
vn 0.0000 -0.0000 -1.0000
vn -0.6483 0.7614 -0.0000
vn -0.7594 0.6506 -0.0000
vn -0.9515 0.3076 -0.0000
vn -1.0000 -0.0000 -0.0000
vn 0.0000 -0.7588 -0.6513
vn 0.0011 -0.6484 -0.7613
vn -0.0011 -0.6484 -0.7613
vn -0.0038 -0.3054 -0.9522
vn 0.0038 -0.3054 -0.9522
vn 0.0056 0.0026 -1.0000
vn -0.0056 0.0026 -1.0000
vn -0.6529 -0.7575 -0.0010
vn -0.7573 -0.6530 0.0007
vn -0.9546 -0.2978 0.0051
vn -0.9534 -0.3017 -0.0062
vn -0.7622 -0.6473 -0.0026
vn -0.9999 0.0090 -0.0084
vn -0.9999 0.0092 0.0080
vn -0.0000 -0.7596 0.6504
vn -0.0061 0.0176 0.9998
vn 0.0061 0.0175 0.9998
vn 0.6529 -0.7575 -0.0010
vn 0.7622 -0.6473 -0.0026
vn 0.9534 -0.3017 -0.0062
vn 0.7573 -0.6530 0.0007
vn 0.9546 -0.2978 0.0051
vn 0.9999 0.0092 0.0080
vn 0.9999 0.0090 -0.0084
vn 0.0000 0.6656 -0.7463
vn 0.5892 -0.5987 0.5426
vn 0.5640 -0.6156 0.5504
vn 0.5554 -0.5875 0.5885
vn 0.5628 -0.5843 0.5846
vn -0.5628 -0.5844 0.5846
vn -0.2699 -0.6733 0.6883
vn -0.2667 -0.6740 0.6889
vn -0.5554 -0.5875 0.5885
vn -0.5892 -0.5987 0.5425
vn -0.5640 -0.6157 0.5503
vn 0.2699 -0.6733 0.6883
vn 0.2667 -0.6739 0.6890
vn -0.0000 -0.6992 0.7149
vn 0.6056 -0.6143 0.5058
vn 0.7362 -0.5282 0.4230
vn 0.0000 -0.7964 0.6047
vn 0.0000 -0.7965 0.6046
vn -0.7363 -0.5282 0.4230
vn -0.6057 -0.6143 0.5058
vn 0.8630 -0.4023 0.3056
vn -0.8630 -0.4023 0.3055
vn -0.7650 0.6440 0.0002
vn 0.4235 -0.6485 -0.6326
vn 0.5554 -0.6581 -0.5083
vn 0.5441 -0.5831 -0.6033
vn 0.3743 -0.7110 -0.5953
vn 0.2354 -0.8355 0.4964
vn 0.2459 -0.8411 0.4818
vn 0.3921 -0.8924 0.2234
vn 0.3755 -0.8896 0.2599
vn 0.1123 -0.8164 0.5664
vn 0.1192 -0.8101 0.5741
vn 0.5344 -0.8152 -0.2235
vn 0.5472 -0.7820 -0.2984
vn 0.4686 -0.8831 0.0256
vn 0.4856 -0.8737 -0.0281
vn 0.1376 -0.6568 -0.7414
vn 0.1369 -0.6558 -0.7424
vn 0.1703 -0.9854 -0.0032
vn -0.1703 -0.9854 -0.0032
vn 0.0420 -0.6596 0.7504
vn 0.0421 -0.6604 0.7497
vn 0.0000 -0.4225 -0.9063
vn 0.0000 -0.4225 0.9063
vn -0.0000 -0.2758 0.9612
vn -0.5203 -0.3471 -0.7803
vn -0.6877 -0.4747 -0.5493
vn -0.5711 -0.3854 -0.7248
vn 0.5202 -0.3471 -0.7803
vn 0.2349 -0.2449 -0.9407
vn 0.2537 -0.2437 -0.9361
vn 0.5710 -0.3853 -0.7249
vn 0.6876 -0.4746 -0.5495
vn -0.2349 -0.2449 -0.9407
vn -0.2537 -0.2437 -0.9361
vn -0.0000 -0.2520 -0.9677
vn -0.7563 -0.5720 0.3175
vn -0.6474 -0.6926 0.3179
vn -0.4977 -0.8109 0.3077
vn -0.0000 -0.7962 0.6050
vn 0.4977 -0.8109 0.3077
vn 0.6474 -0.6926 0.3180
vn 0.7563 -0.5720 0.3176
vn -0.8630 -0.4023 0.3054
vn 0.7650 0.6440 0.0002
vn -0.1192 -0.8101 0.5741
vn -0.1122 -0.8165 0.5664
vn -0.2354 -0.8356 0.4964
vn -0.2459 -0.8411 0.4818
vn -0.5554 -0.6581 -0.5083
vn -0.5441 -0.5831 -0.6033
vn -0.5472 -0.7820 -0.2984
vn -0.5343 -0.8152 -0.2235
vn -0.4235 -0.6485 -0.6326
vn -0.3743 -0.7110 -0.5953
vn -0.3756 -0.8896 0.2599
vn -0.3921 -0.8924 0.2234
vn -0.4685 -0.8831 0.0256
vn -0.4856 -0.8737 -0.0281
vn -0.0421 -0.6604 0.7497
vn -0.0419 -0.6596 0.7504
vn 0.1702 -0.9854 -0.0032
vn -0.1702 -0.9854 -0.0032
vn -0.1369 -0.6558 -0.7424
vn -0.1376 -0.6568 -0.7414
vn 0.8756 -0.3416 -0.3416
vn 0.8756 -0.3416 0.3416
vn 0.0507 -0.9974 0.0507
vn 0.3416 -0.8756 0.3416
vn -0.0507 -0.9974 0.0507
vn 0.1535 -0.2513 0.9556
vn -0.1535 -0.2513 0.9556
vn -0.0507 -0.9974 -0.0507
vn 0.0507 -0.9974 -0.0507
vn 0.3416 -0.8756 -0.3416
vn 0.9556 -0.2514 0.1535
vn 0.9556 -0.2514 -0.1535
vn 0.1535 -0.2513 -0.9556
vn -0.1535 -0.2513 -0.9556
vn -0.6462 -0.4061 -0.6462
vn -0.4524 -0.7685 -0.4524
vn -0.1446 -0.8862 -0.4402
vn -0.9556 -0.2514 -0.1535
vn -0.4402 -0.8862 -0.1445
vn 0.4524 -0.7685 -0.4524
vn 0.4402 -0.8862 -0.1446
vn 0.6462 -0.4061 -0.6462
vn 0.1446 -0.8862 -0.4402
vn 0.6462 -0.4061 0.6462
vn 0.4524 -0.7685 0.4524
vn 0.1446 -0.8862 0.4402
vn 0.4402 -0.8862 0.1445
vn -0.4524 -0.7685 0.4524
vn -0.6462 -0.4061 0.6462
vn -0.1446 -0.8862 0.4402
vn -0.4402 -0.8862 0.1446
vn -0.9556 -0.2514 0.1535
vn 0.1802 0.3827 -0.9061
vn 0.0747 0.9239 -0.3754
vn 0.5132 0.3827 -0.7682
vn 0.2126 0.9239 -0.3182
vn 0.7682 0.3827 -0.5133
vn 0.3182 0.9239 -0.2126
vn 0.9061 0.3827 -0.1802
vn 0.3754 0.9239 -0.0747
vn 0.9061 0.3827 0.1802
vn 0.3753 0.9239 0.0747
vn 0.7682 0.3827 0.5133
vn 0.3182 0.9239 0.2126
vn 0.5132 0.3827 0.7682
vn 0.2126 0.9239 0.3182
vn 0.1802 0.3827 0.9061
vn 0.0747 0.9239 0.3754
vn -0.1802 0.3827 0.9061
vn -0.0747 0.9239 0.3754
vn -0.5133 0.3827 0.7682
vn -0.2126 0.9239 0.3182
vn -0.7682 0.3827 0.5133
vn -0.3182 0.9239 0.2126
vn -0.9061 0.3827 0.1802
vn -0.3753 0.9239 0.0747
vn -0.9061 0.3827 -0.1802
vn -0.3754 0.9239 -0.0747
vn -0.7682 0.3827 -0.5133
vn -0.3182 0.9239 -0.2126
vn -0.5133 0.3827 -0.7682
vn -0.2126 0.9239 -0.3182
vn -0.1802 0.3827 -0.9061
vn -0.0747 0.9239 -0.3754
# 279 vertex normals

vt 0.9224 0.8403 0.0000
vt 0.9224 0.9915 0.0000
vt 0.7712 0.9915 0.0000
vt 0.7712 0.8403 0.0000
vt 0.9088 0.8403 0.0000
vt 0.9088 0.9915 0.0000
vt 0.9047 0.8363 0.0000
vt 0.9008 0.8403 0.0000
vt 0.9008 0.9915 0.0000
vt 0.8983 0.8535 0.0000
vt 0.9047 0.9954 0.0000
vt 0.8983 0.9782 0.0000
vt 0.9112 0.4249 0.0000
vt 0.9112 0.4897 0.0000
vt 0.7350 0.4897 0.0000
vt 0.7350 0.4249 0.0000
vt 0.0501 0.0088 0.0000
vt 0.0501 0.9960 0.0000
vt 0.0143 0.9960 0.0000
vt 0.0143 0.0088 0.0000
vt 0.0106 0.9967 0.0000
vt 0.0138 0.9967 0.0000
vt 0.2222 0.0142 0.0000
vt 0.2222 0.0473 0.0000
vt 0.2212 0.0483 0.0000
vt 0.2197 0.0472 0.0000
vt 0.2197 0.0143 0.0000
vt 0.2212 0.0132 0.0000
vt 0.9115 0.5080 0.0000
vt 0.8994 0.5200 0.0000
vt 0.8834 0.5267 0.0000
vt 0.7468 0.5200 0.0000
vt 0.7628 0.5267 0.0000
vt 0.7347 0.5080 0.0000
vt 0.1078 0.0143 0.0000
vt 0.1078 0.0472 0.0000
vt 0.7256 0.6106 0.0000
vt 0.7256 0.4343 0.0000
vt 0.7283 0.4277 0.0000
vt 0.9112 0.6200 0.0000
vt 0.9179 0.4277 0.0000
vt 0.9207 0.4343 0.0000
vt 0.9207 0.6106 0.0000
vt 0.9179 0.6172 0.0000
vt 0.7283 0.6172 0.0000
vt 0.7350 0.6200 0.0000
vt 0.8875 0.9890 0.0000
vt 0.8705 0.0318 0.0000
vt 0.8292 0.0732 0.0000
vt 0.7945 0.0875 0.0000
vt 0.6001 0.0875 0.0000
vt 0.5653 0.0732 0.0000
vt 0.5240 0.0318 0.0000
vt 0.5653 0.3370 0.0000
vt 0.6001 0.3226 0.0000
vt 0.7945 0.3226 0.0000
vt 0.8292 0.3370 0.0000
vt 0.5240 0.3783 0.0000
vt 0.8705 0.3783 0.0000
vt 0.8148 0.3023 0.0000
vt 0.8148 0.1079 0.0000
vt 0.5797 0.1079 0.0000
vt 0.5797 0.3023 0.0000
vt 0.7310 0.5006 0.0000
vt 0.9152 0.5006 0.0000
vt 0.1078 0.0117 0.0000
vt 0.1078 0.0125 0.0000
vt 0.8928 0.5361 0.0000
vt 0.8900 0.5267 0.0000
vt 0.2197 0.0125 0.0000
vt 0.2197 0.0132 0.0000
vt 0.2197 0.0117 0.0000
vt 0.2197 0.0498 0.0000
vt 0.2197 0.0490 0.0000
vt 0.2197 0.0483 0.0000
vt 0.7256 0.4897 0.0000
vt 0.7283 0.4897 0.0000
vt 0.7310 0.4897 0.0000
vt 0.9179 0.4897 0.0000
vt 0.9152 0.4897 0.0000
vt 0.9207 0.4897 0.0000
vt 0.1078 0.0498 0.0000
vt 0.7256 0.4249 0.0000
vt 0.9207 0.4249 0.0000
vt 0.0106 0.0088 0.0000
vt 0.0106 0.9960 0.0000
vt 0.0538 0.9960 0.0000
vt 0.0538 0.0088 0.0000
vt 0.0536 0.9967 0.0000
vt 0.0504 0.9967 0.0000
vt 0.8972 0.9754 0.0000
vt 0.8972 0.8563 0.0000
vt 0.0501 0.9967 0.0000
vt 0.0143 0.9967 0.0000
vt 0.9048 0.8403 0.0000
vt 0.9088 0.8363 0.0000
vt 0.9264 0.9915 0.0000
vt 0.9224 0.9955 0.0000
vt 0.9224 0.8363 0.0000
vt 0.9264 0.8403 0.0000
vt 0.9088 0.9955 0.0000
vt 0.9048 0.9915 0.0000
vt 0.9878 0.4847 0.0000
vt 0.9335 0.4847 0.0000
vt 0.9335 0.0158 0.0000
vt 0.9878 0.0158 0.0000
vt 0.5045 0.4857 0.0000
vt 0.5045 0.5340 0.0000
vt 0.0872 0.5340 0.0000
vt 0.0872 0.4857 0.0000
vt 0.9335 0.4276 0.0000
vt 0.9335 0.4819 0.0000
vt 0.9878 0.4819 0.0000
vt 0.9878 0.4276 0.0000
vt 0.9307 0.0158 0.0000
vt 0.9335 0.0130 0.0000
vt 0.9906 0.0158 0.0000
vt 0.9878 0.0130 0.0000
vt 0.9906 0.4819 0.0000
vt 0.9906 0.4276 0.0000
vt 0.9335 0.4248 0.0000
vt 0.9878 0.4248 0.0000
vt 0.9307 0.4819 0.0000
vt 0.9307 0.4276 0.0000
vt 0.9906 0.4847 0.0000
vt 0.9307 0.4847 0.0000
vt 0.4594 0.4178 0.0000
vt 0.4594 0.1226 0.0000
vt 0.4936 0.1226 0.0000
vt 0.4936 0.4178 0.0000
vt 0.6614 0.9797 0.0000
vt 0.6048 0.9366 0.0000
vt 0.6048 0.5430 0.0000
vt 0.6614 0.8438 0.0000
vt 0.6614 0.5000 0.0000
vt 0.6614 0.6358 0.0000
vt 0.6528 0.6445 0.0000
vt 0.6335 0.6882 0.0000
vt 0.6268 0.7398 0.0000
vt 0.6335 0.7914 0.0000
vt 0.6528 0.8351 0.0000
vt 0.6964 0.8746 0.0000
vt 0.6964 0.9797 0.0000
vt 0.6744 0.8643 0.0000
vt 0.6964 0.5000 0.0000
vt 0.6964 0.6050 0.0000
vt 0.6744 0.6153 0.0000
vt 0.6613 0.5000 0.0000
vt 0.6613 0.6358 0.0000
vt 0.6613 0.9797 0.0000
vt 0.6526 0.8348 0.0000
vt 0.6612 0.8435 0.0000
vt 0.6612 0.9793 0.0000
vt 0.6612 0.4998 0.0000
vt 0.6047 0.9362 0.0000
vt 0.6047 0.5428 0.0000
vt 0.6526 0.6443 0.0000
vt 0.6334 0.6880 0.0000
vt 0.6267 0.7395 0.0000
vt 0.6612 0.6356 0.0000
vt 0.6334 0.7911 0.0000
vt 0.6963 0.8743 0.0000
vt 0.6963 0.9793 0.0000
vt 0.6743 0.8640 0.0000
vt 0.6963 0.4998 0.0000
vt 0.6963 0.6048 0.0000
vt 0.6743 0.6151 0.0000
vt 0.6334 0.6883 0.0000
vt 0.6334 0.7908 0.0000
vt 0.6610 0.6361 0.0000
vt 0.6525 0.8343 0.0000
vt 0.6610 0.8429 0.0000
vt 0.6610 0.9769 0.0000
vt 0.6049 0.9343 0.0000
vt 0.6049 0.5447 0.0000
vt 0.6610 0.5021 0.0000
vt 0.6525 0.6448 0.0000
vt 0.6958 0.6057 0.0000
vt 0.6739 0.6158 0.0000
vt 0.6958 0.5023 0.0000
vt 0.6958 0.8733 0.0000
vt 0.6958 0.9768 0.0000
vt 0.6739 0.8632 0.0000
vt 0.6333 0.7907 0.0000
vt 0.6523 0.8341 0.0000
vt 0.6607 0.8428 0.0000
vt 0.6609 0.9775 0.0000
vt 0.6053 0.9344 0.0000
vt 0.6057 0.5447 0.0000
vt 0.6613 0.5026 0.0000
vt 0.6335 0.6884 0.0000
vt 0.6609 0.6365 0.0000
vt 0.6526 0.6450 0.0000
vt 0.6734 0.6168 0.0000
vt 0.6953 0.6068 0.0000
vt 0.6956 0.5032 0.0000
vt 0.6730 0.8637 0.0000
vt 0.6948 0.8739 0.0000
vt 0.6956 0.9774 0.0000
vt 0.6604 0.8429 0.0000
vt 0.6525 0.8342 0.0000
vt 0.6604 0.9769 0.0000
vt 0.6052 0.9343 0.0000
vt 0.6604 0.5021 0.0000
vt 0.6052 0.5448 0.0000
vt 0.6604 0.6362 0.0000
vt 0.6722 0.6158 0.0000
vt 0.6941 0.6057 0.0000
vt 0.6948 0.5023 0.0000
vt 0.6722 0.8632 0.0000
vt 0.6941 0.8734 0.0000
vt 0.6948 0.9768 0.0000
vt 0.6333 0.6884 0.0000
vt 0.6335 0.7907 0.0000
vt 0.6609 0.8426 0.0000
vt 0.6526 0.8340 0.0000
vt 0.6613 0.9764 0.0000
vt 0.6057 0.9344 0.0000
vt 0.6053 0.5446 0.0000
vt 0.6607 0.6362 0.0000
vt 0.6609 0.5016 0.0000
vt 0.6523 0.6449 0.0000
vt 0.6948 0.6052 0.0000
vt 0.6730 0.6153 0.0000
vt 0.6956 0.5016 0.0000
vt 0.6734 0.8623 0.0000
vt 0.6953 0.8723 0.0000
vt 0.6956 0.9759 0.0000
vt 0.9967 0.8275 0.0000
vt 0.6675 0.8275 0.0000
vt 0.0632 0.5057 0.0000
vt 0.0749 0.5067 0.0000
vt 0.0750 0.5876 0.0000
vt 0.0632 0.5871 0.0000
vt 0.0641 0.7503 0.0000
vt 0.0641 0.4328 0.0000
vt 0.0759 0.4325 0.0000
vt 0.0759 0.7500 0.0000
vt 0.0632 0.4244 0.0000
vt 0.0750 0.4238 0.0000
vt 0.0749 0.5048 0.0000
vt 0.0641 0.7500 0.0000
vt 0.0641 0.4325 0.0000
vt 0.0759 0.4328 0.0000
vt 0.0759 0.7503 0.0000
vt 0.0640 0.4045 0.0000
vt 0.0758 0.4046 0.0000
vt 0.0758 0.7503 0.0000
vt 0.0640 0.7502 0.0000
vt 0.0629 0.4273 0.0000
vt 0.0735 0.4236 0.0000
vt 0.0738 0.5846 0.0000
vt 0.0629 0.5889 0.0000
vt 0.0731 0.7438 0.0000
vt 0.0787 0.0520 0.0000
vt 0.0676 0.0520 0.0000
vt 0.0676 0.7503 0.0000
vt 0.0736 0.5893 0.0000
vt 0.0732 0.7503 0.0000
vt 0.0627 0.7467 0.0000
vt 0.0627 0.5850 0.0000
vt 0.0764 0.7442 0.0000
vt 0.0670 0.7503 0.0000
vt 0.0670 0.5889 0.0000
vt 0.0764 0.5828 0.0000
vt 0.0736 0.5850 0.0000
vt 0.0643 0.5789 0.0000
vt 0.0643 0.4175 0.0000
vt 0.0736 0.4236 0.0000
vt 0.0640 0.4046 0.0000
vt 0.0758 0.4045 0.0000
vt 0.0758 0.7502 0.0000
vt 0.0640 0.7503 0.0000
vt 0.0628 0.7442 0.0000
vt 0.0628 0.6630 0.0000
vt 0.0736 0.6690 0.0000
vt 0.0737 0.7503 0.0000
vt 0.0763 0.7503 0.0000
vt 0.0641 0.7482 0.0000
vt 0.0641 0.4306 0.0000
vt 0.0763 0.4328 0.0000
vt 0.0625 0.6690 0.0000
vt 0.0749 0.6690 0.0000
vt 0.0750 0.7488 0.0000
vt 0.0625 0.7503 0.0000
vt 0.0746 0.7503 0.0000
vt 0.0635 0.7448 0.0000
vt 0.0635 0.4273 0.0000
vt 0.0746 0.4328 0.0000
vt 0.0644 0.7456 0.0000
vt 0.0644 0.3998 0.0000
vt 0.0640 0.4266 0.0000
vt 0.0760 0.4272 0.0000
vt 0.0766 0.5888 0.0000
vt 0.0640 0.5889 0.0000
vt 0.0661 0.0520 0.0000
vt 0.0661 0.7503 0.0000
vt 0.0732 0.7459 0.0000
vt 0.0790 0.0520 0.0000
vt 0.0731 0.7459 0.0000
vt 0.0616 0.5887 0.0000
vt 0.0730 0.5939 0.0000
vt 0.0616 0.7503 0.0000
vt 0.0767 0.5889 0.0000
vt 0.0767 0.7503 0.0000
vt 0.0636 0.7503 0.0000
vt 0.0636 0.5889 0.0000
vt 0.0637 0.7503 0.0000
vt 0.0756 0.7467 0.0000
vt 0.0756 0.4009 0.0000
vt 0.0637 0.4046 0.0000
vt 0.0700 0.5870 0.0000
vt 0.0700 0.5057 0.0000
vt 0.0741 0.5072 0.0000
vt 0.0744 0.5856 0.0000
vt 0.0703 0.7495 0.0000
vt 0.0703 0.4320 0.0000
vt 0.0752 0.4328 0.0000
vt 0.0752 0.7503 0.0000
vt 0.0700 0.5072 0.0000
vt 0.0697 0.5855 0.0000
vt 0.0655 0.5870 0.0000
vt 0.0655 0.5057 0.0000
vt 0.0699 0.7503 0.0000
vt 0.0699 0.4328 0.0000
vt 0.0748 0.4320 0.0000
vt 0.0748 0.7495 0.0000
vt 0.0702 0.4046 0.0000
vt 0.0751 0.4043 0.0000
vt 0.0751 0.7501 0.0000
vt 0.0702 0.7503 0.0000
vt 0.0632 0.4273 0.0000
vt 0.0734 0.4309 0.0000
vt 0.0669 0.5881 0.0000
vt 0.0632 0.5889 0.0000
vt 0.0679 0.0520 0.0000
vt 0.0734 0.7438 0.0000
vt 0.0679 0.7503 0.0000
vt 0.0622 0.4270 0.0000
vt 0.0659 0.4279 0.0000
vt 0.0724 0.5851 0.0000
vt 0.0622 0.5887 0.0000
vt 0.0670 0.5767 0.0000
vt 0.0670 0.4153 0.0000
vt 0.0764 0.4214 0.0000
vt 0.0616 0.4273 0.0000
vt 0.0709 0.4212 0.0000
vt 0.0709 0.5826 0.0000
vt 0.0695 0.7501 0.0000
vt 0.0695 0.4043 0.0000
vt 0.0745 0.4046 0.0000
vt 0.0745 0.7503 0.0000
vt 0.0625 0.5876 0.0000
vt 0.0750 0.5892 0.0000
vt 0.0749 0.6689 0.0000
vt 0.0636 0.4244 0.0000
vt 0.0744 0.4184 0.0000
vt 0.0744 0.4996 0.0000
vt 0.0636 0.5057 0.0000
vt 0.0740 0.7451 0.0000
vt 0.0625 0.5887 0.0000
vt 0.0756 0.5887 0.0000
vt 0.0627 0.4266 0.0000
vt 0.0754 0.4268 0.0000
vt 0.0747 0.5884 0.0000
vt 0.0627 0.5889 0.0000
vt 0.5231 0.3797 0.0000
vt 0.5231 0.0319 0.0000
vt 0.8708 0.0319 0.0000
vt 0.8708 0.3797 0.0000
vt 0.5192 0.4140 0.0000
vt 0.5192 0.4048 0.0000
vt 0.7223 0.4048 0.0000
vt 0.7223 0.4140 0.0000
vt 0.7082 0.4303 0.0000
vt 0.7225 0.4160 0.0000
vt 0.5194 0.4160 0.0000
vt 0.5337 0.4303 0.0000
vt 0.1063 0.5502 0.0000
vt 0.5976 0.5502 0.0000
vt 0.5976 0.9294 0.0000
vt 0.1063 0.9294 0.0000
vt 0.0890 0.0694 0.0000
vt 0.0912 0.0640 0.0000
vt 0.0965 0.0618 0.0000
vt 0.0912 0.4728 0.0000
vt 0.4946 0.0618 0.0000
vt 0.5000 0.0640 0.0000
vt 0.5022 0.4675 0.0000
vt 0.5022 0.0694 0.0000
vt 0.5000 0.4728 0.0000
vt 0.4946 0.4750 0.0000
vt 0.0965 0.4750 0.0000
vt 0.0890 0.4675 0.0000
vt 0.5976 0.5430 0.0000
vt 0.6018 0.5430 0.0000
vt 0.5975 0.9362 0.0000
vt 0.5975 0.9290 0.0000
vt 0.5368 0.4334 0.0000
vt 0.5312 0.4277 0.0000
vt 0.5976 0.9366 0.0000
vt 0.6017 0.5428 0.0000
vt 0.5975 0.5500 0.0000
vt 0.5975 0.5428 0.0000
vt 0.1063 0.5430 0.0000
vt 0.1064 0.9290 0.0000
vt 0.1064 0.9362 0.0000
vt 0.1063 0.9366 0.0000
vt 0.1064 0.5428 0.0000
vt 0.1064 0.5500 0.0000
vt 0.7051 0.4334 0.0000
vt 0.8872 0.0183 0.0000
vt 0.8891 0.0202 0.0000
vt 0.5323 0.0202 0.0000
vt 0.5341 0.0202 0.0000
vt 0.5323 0.0183 0.0000
vt 0.5154 0.0202 0.0000
vt 0.5136 0.0202 0.0000
vt 0.5154 0.0183 0.0000
vt 0.5154 0.3920 0.0000
vt 0.5136 0.3920 0.0000
vt 0.5154 0.3938 0.0000
vt 0.5323 0.3938 0.0000
vt 0.5323 0.3920 0.0000
vt 0.8708 0.0259 0.0000
vt 0.5231 0.0259 0.0000
vt 0.5170 0.3797 0.0000
vt 0.5170 0.0320 0.0000
vt 0.8709 0.3857 0.0000
vt 0.5232 0.3857 0.0000
vt 0.8769 0.0319 0.0000
vt 0.8769 0.3796 0.0000
vt 0.7223 0.4150 0.0000
vt 0.5192 0.4150 0.0000
vt 0.7223 0.4037 0.0000
vt 0.5192 0.4037 0.0000
vt 0.7223 0.4038 0.0000
vt 0.5192 0.4038 0.0000
vt 0.6707 0.6612 0.0000
vt 0.6907 0.6612 0.0000
vt 0.6907 0.8118 0.0000
vt 0.6707 0.8118 0.0000
vt 0.9509 0.6612 0.0000
vt 0.9509 0.8118 0.0000
vt 0.9309 0.8118 0.0000
vt 0.9309 0.6612 0.0000
vt 0.9109 0.8118 0.0000
vt 0.9109 0.6612 0.0000
vt 0.8909 0.8118 0.0000
vt 0.8909 0.6612 0.0000
vt 0.8708 0.8118 0.0000
vt 0.8708 0.6612 0.0000
vt 0.8508 0.8118 0.0000
vt 0.8508 0.6612 0.0000
vt 0.8308 0.6612 0.0000
vt 0.8308 0.8118 0.0000
vt 0.8108 0.8118 0.0000
vt 0.8108 0.6612 0.0000
vt 0.7908 0.8118 0.0000
vt 0.7908 0.6612 0.0000
vt 0.7708 0.8118 0.0000
vt 0.7708 0.6612 0.0000
vt 0.7508 0.8118 0.0000
vt 0.7508 0.6612 0.0000
vt 0.7308 0.8118 0.0000
vt 0.7308 0.6612 0.0000
vt 0.7107 0.8118 0.0000
vt 0.7107 0.6612 0.0000
vt 0.9909 0.8118 0.0000
vt 0.9709 0.8118 0.0000
vt 0.9709 0.6612 0.0000
vt 0.9909 0.6612 0.0000
vt 0.9906 0.8213 0.0000
vt 0.9713 0.8213 0.0000
vt 0.8551 0.5989 0.0000
vt 0.8588 0.6095 0.0000
vt 0.8242 0.6164 0.0000
vt 0.8236 0.6052 0.0000
vt 0.9705 0.8213 0.0000
vt 0.9512 0.8213 0.0000
vt 0.8818 0.5811 0.0000
vt 0.8893 0.5894 0.0000
vt 0.8599 0.6090 0.0000
vt 0.9312 0.8213 0.0000
vt 0.9505 0.8213 0.0000
vt 0.8996 0.5543 0.0000
vt 0.9097 0.5592 0.0000
vt 0.8902 0.5885 0.0000
vt 0.9305 0.8213 0.0000
vt 0.9112 0.8213 0.0000
vt 0.9171 0.5235 0.0000
vt 0.9102 0.5580 0.0000
vt 0.9059 0.5228 0.0000
vt 0.9105 0.8213 0.0000
vt 0.8912 0.8213 0.0000
vt 0.9171 0.5222 0.0000
vt 0.8996 0.4913 0.0000
vt 0.9102 0.4876 0.0000
vt 0.8905 0.8213 0.0000
vt 0.8712 0.8213 0.0000
vt 0.9097 0.4865 0.0000
vt 0.8818 0.4646 0.0000
vt 0.8902 0.4572 0.0000
vt 0.8705 0.8213 0.0000
vt 0.8512 0.8213 0.0000
vt 0.8893 0.4563 0.0000
vt 0.8551 0.4468 0.0000
vt 0.8599 0.4367 0.0000
vt 0.8505 0.8213 0.0000
vt 0.8312 0.8213 0.0000
vt 0.8588 0.4362 0.0000
vt 0.8236 0.4405 0.0000
vt 0.8242 0.4293 0.0000
vt 0.8305 0.8213 0.0000
vt 0.8112 0.8213 0.0000
vt 0.7921 0.4468 0.0000
vt 0.7884 0.4362 0.0000
vt 0.8229 0.4293 0.0000
vt 0.8105 0.8213 0.0000
vt 0.7911 0.8213 0.0000
vt 0.7653 0.4646 0.0000
vt 0.7579 0.4563 0.0000
vt 0.7872 0.4367 0.0000
vt 0.7904 0.8213 0.0000
vt 0.7711 0.8213 0.0000
vt 0.7475 0.4913 0.0000
vt 0.7374 0.4865 0.0000
vt 0.7570 0.4572 0.0000
vt 0.7704 0.8213 0.0000
vt 0.7511 0.8213 0.0000
vt 0.7301 0.5222 0.0000
vt 0.7369 0.4876 0.0000
vt 0.7412 0.5228 0.0000
vt 0.7504 0.8213 0.0000
vt 0.7311 0.8213 0.0000
vt 0.7475 0.5543 0.0000
vt 0.7369 0.5580 0.0000
vt 0.7301 0.5235 0.0000
vt 0.7304 0.8213 0.0000
vt 0.7111 0.8213 0.0000
vt 0.7653 0.5811 0.0000
vt 0.7570 0.5885 0.0000
vt 0.7374 0.5592 0.0000
vt 0.7104 0.8213 0.0000
vt 0.6911 0.8213 0.0000
vt 0.7921 0.5989 0.0000
vt 0.7872 0.6090 0.0000
vt 0.7579 0.5894 0.0000
vt 0.6904 0.8213 0.0000
vt 0.6711 0.8213 0.0000
vt 0.7884 0.6095 0.0000
vt 0.8229 0.6164 0.0000
vt 0.2633 0.0494 0.0000
vt 0.2633 0.0118 0.0000
vt 0.3964 0.0118 0.0000
vt 0.3964 0.0494 0.0000
# 556 texture coords

o ModernLamp_Single_็__ๆ_นไ___003
g ModernLamp_Single_็__ๆ_นไ___003
usemtl ๆ__่___019
s 1
f 1/1/1 2/2/2 3/3/3 4/4/4 
f 5/5/5 6/1/6 7/2/7 8/6/8 
f 9/7/9 9/8/10 10/9/11 11/10/12 
f 11/10/12 10/9/11 10/11/9 12/12/12 
f 13/5/13 14/1/14 15/2/15 16/6/16 
f 17/13/17 18/14/18 19/15/19 20/16/20 
f 21/2/21 22/6/22 23/5/23 24/1/24 
f 25/10/9 26/7/9 26/8/25 9/9/10 
f 25/10/9 9/9/10 9/11/9 27/12/9 
f 28/13/26 29/14/27 30/15/28 31/16/29 
f 32/17/30 33/18/30 34/19/31 35/20/31 
f 25/21/9 36/22/9 26/21/9 
f 37/23/32 38/24/32 39/25/33 40/26/34 
f 37/23/32 40/26/34 41/27/35 42/28/36 
f 43/29/37 44/30/38 45/31/38 46/32/38 
f 45/31/38 47/33/38 46/32/38 
f 43/29/37 46/32/38 48/34/39 
f 49/29/40 50/30/38 51/31/38 44/32/38 
f 51/31/38 52/33/38 44/32/38 
f 49/29/40 44/32/38 43/34/37 
f 53/35/41 54/36/42 52/26/43 51/27/44 
f 55/37/9 56/38/9 57/39/9 58/40/9 
f 28/16/9 31/13/9 59/41/9 57/39/9 
f 59/41/9 17/42/9 20/43/9 57/39/9 
f 20/43/9 60/44/9 58/40/9 57/39/9 
f 61/45/9 55/37/9 58/40/9 62/46/9 
f 45/26/26 63/36/27 64/35/28 47/27/29 
f 65/29/45 66/30/38 67/31/38 50/32/38 
f 67/31/38 68/33/38 50/32/38 
f 65/29/45 50/32/38 49/34/40 
f 67/26/46 41/36/35 40/35/34 68/27/47 
f 69/36/19 70/26/20 71/27/17 72/35/18 
f 55/13/44 73/14/41 74/15/42 56/16/43 
f 75/47/9 12/12/12 10/11/9 
f 11/21/12 27/22/9 9/21/9 
f 76/7/9 76/8/48 26/9/25 26/11/9 
f 77/10/9 76/7/9 26/11/9 36/12/9 
f 78/48/49 79/49/38 80/50/38 81/51/38 
f 78/48/49 81/51/38 82/52/38 37/53/49 
f 83/54/38 84/55/38 85/56/38 86/57/38 
f 38/58/50 83/54/38 86/57/38 87/59/50 
f 87/59/51 86/57/38 88/60/38 79/49/38 
f 88/60/38 89/61/38 79/49/38 
f 87/59/51 79/49/38 78/48/51 
f 37/53/32 82/52/38 32/62/38 35/63/38 
f 35/63/38 83/54/38 38/58/32 37/53/32 
f 90/25/52 54/26/42 53/27/41 87/24/50 
f 38/23/50 87/24/50 53/27/41 39/28/33 
f 43/34/37 91/64/52 74/15/42 92/65/33 
f 74/15/42 73/14/41 92/65/33 
f 49/29/40 43/34/37 92/65/33 
f 87/23/51 78/24/51 93/25/53 90/28/52 
f 93/25/53 64/26/28 63/27/27 90/28/52 
f 37/24/49 42/25/36 69/26/19 78/23/49 
f 78/23/49 69/26/19 72/27/18 93/28/53 
f 94/64/53 30/15/28 29/14/27 91/65/52 
f 48/34/39 94/64/53 91/65/52 43/29/37 
f 65/29/45 49/34/40 92/64/33 95/15/34 
f 65/29/45 95/15/34 96/14/35 97/65/36 
f 48/29/39 65/34/45 97/64/36 18/14/18 
f 97/64/36 19/15/19 18/14/18 
f 48/29/39 18/14/18 94/65/53 
f 48/29/39 46/30/38 71/31/38 70/33/38 
f 48/29/39 70/33/38 66/32/38 65/34/45 
f 70/66/38 98/67/38 66/66/38 
f 98/67/38 67/35/38 66/66/38 
f 68/68/38 99/69/38 50/30/38 
f 99/69/38 51/31/38 50/30/38 
f 52/68/38 100/69/38 44/30/38 
f 100/69/38 45/31/38 44/30/38 
f 47/68/38 101/69/38 46/30/38 
f 101/69/38 71/31/38 46/30/38 
f 41/27/35 102/70/54 42/71/36 
f 102/70/54 69/72/19 42/71/36 
f 53/73/41 103/74/55 39/75/33 
f 103/74/55 40/26/34 39/75/33 
f 63/73/27 104/74/56 90/75/52 
f 104/74/56 54/26/42 90/75/52 
f 72/73/18 105/74/57 93/75/53 
f 105/74/57 64/26/28 93/75/53 
f 73/76/41 106/77/55 92/78/33 
f 106/77/55 95/15/34 92/78/33 
f 29/76/27 107/77/56 91/78/52 
f 107/77/56 74/15/42 91/78/52 
f 18/14/18 108/79/57 94/80/53 
f 108/79/57 30/81/28 94/80/53 
f 96/76/35 109/77/54 97/78/36 
f 109/77/54 19/15/19 97/78/36 
f 69/36/19 102/82/54 98/73/58 70/26/20 
f 102/82/54 41/36/35 67/26/46 98/73/58 
f 53/35/41 51/27/44 99/72/59 103/66/55 
f 103/66/55 99/72/59 68/27/47 40/35/34 
f 64/35/28 105/66/57 101/72/60 47/27/29 
f 101/72/60 105/66/57 72/35/18 71/27/17 
f 100/73/61 104/82/56 63/36/27 45/26/26 
f 52/26/43 54/36/42 104/82/56 100/73/61 
f 106/76/55 61/83/59 62/16/47 95/15/34 
f 106/81/55 73/14/41 55/13/44 61/84/59 
f 57/84/61 107/81/56 29/14/27 28/13/26 
f 107/76/56 57/83/61 56/16/43 74/15/42 
f 20/16/20 19/15/19 109/76/54 60/83/58 
f 109/81/54 96/14/35 58/13/46 60/84/58 
f 59/84/60 108/81/57 18/14/18 17/13/17 
f 59/83/60 31/16/29 30/15/28 108/76/57 
f 58/13/46 96/14/35 95/15/34 62/16/47 
f 81/51/38 32/62/38 82/52/38 
f 35/63/38 84/55/38 83/54/38 
f 85/20/38 88/85/38 86/85/38 
f 89/61/38 80/50/38 79/49/38 
f 84/85/62 35/20/31 34/19/31 110/86/62 
f 111/19/63 112/86/64 88/85/64 85/20/63 
f 89/20/65 113/19/65 114/86/66 80/85/66 
f 115/87/67 33/18/30 32/17/30 81/88/67 
f 85/20/63 84/17/62 110/18/62 111/19/63 
f 89/20/65 88/17/64 112/18/64 113/19/65 
f 114/18/66 115/19/67 81/20/67 80/17/66 
f 10/7/9 10/8/11 76/9/48 76/11/9 
f 10/7/9 76/11/9 116/12/9 75/10/9 
f 116/22/68 77/21/68 110/86/68 34/19/68 
f 25/21/69 112/86/69 111/19/69 36/22/69 
f 27/22/70 11/21/70 114/86/70 113/19/70 
f 33/18/71 115/87/71 12/89/71 75/90/71 
f 115/91/72 114/92/72 11/10/72 12/12/72 
f 116/12/73 34/91/73 33/92/73 75/10/73 
f 111/19/74 110/18/74 77/93/74 36/94/74 
f 27/94/75 113/19/75 112/18/75 25/93/75 
f 77/21/9 116/22/9 76/21/9 
f 117/5/76 1/95/1 16/96/16 
f 13/5/13 4/95/4 22/96/22 
f 5/5/5 2/95/2 118/96/77 
f 23/5/23 3/95/3 8/96/8 
f 15/2/15 10/97/11 119/98/78 
f 14/1/14 21/99/21 76/100/48 
f 24/1/24 7/99/7 26/100/25 
f 6/1/6 120/99/79 9/100/10 
f 15/2/15 119/98/78 117/101/76 16/6/16 
f 16/6/16 1/102/1 4/95/4 13/5/13 
f 3/95/3 23/5/23 22/6/22 4/102/4 
f 3/102/3 2/95/2 5/5/5 8/6/8 
f 117/5/76 118/6/77 2/102/2 1/95/1 
f 21/99/21 14/1/14 13/5/13 22/96/22 
f 8/96/8 7/99/7 24/1/24 23/5/23 
f 5/5/5 118/96/77 120/99/79 6/1/6 
f 9/97/10 120/2/79 119/1/78 10/100/11 
f 6/1/6 9/100/10 26/97/25 7/2/7 
f 21/2/21 24/1/24 26/100/25 76/97/48 
f 14/1/14 76/100/48 10/97/11 15/2/15 
f 118/6/77 117/5/76 119/1/78 120/2/79 
f 121/103/80 122/104/81 123/105/76 124/106/78 
f 125/107/4 126/108/1 127/109/82 128/110/83 
f 129/111/16 130/112/13 131/113/14 132/114/15 
f 133/104/84 134/103/85 135/106/21 136/105/22 
f 137/115/86 124/115/78 132/116/15 
f 123/106/76 126/117/1 129/118/16 
f 138/119/87 131/119/14 135/103/21 
f 125/115/4 136/115/22 130/116/13 
f 132/114/15 131/113/14 138/119/87 137/120/86 
f 123/121/76 129/111/16 132/114/15 124/122/78 
f 125/123/4 130/112/13 129/111/16 126/124/1 
f 131/113/14 130/112/13 136/104/22 135/103/21 
f 139/125/88 138/117/87 135/106/21 134/103/85 
f 128/104/83 133/126/84 136/115/22 125/105/4 
f 121/103/80 124/106/78 137/117/86 140/125/89 
f 123/105/76 122/104/81 127/126/82 126/115/1 
f 140/127/89 137/128/86 138/129/87 139/130/88 
f 141/131/90 142/132/91 143/133/91 144/134/92 
f 143/133/91 145/135/90 146/136/92 147/137/91 
f 144/134/92 143/133/91 147/137/91 148/138/91 
f 144/134/92 148/138/91 149/139/91 150/140/91 
f 151/141/91 144/134/92 150/140/91 
f 152/142/93 153/143/93 141/131/90 144/134/92 
f 152/142/93 144/134/92 154/144/93 
f 146/136/92 145/135/90 155/145/93 156/146/93 
f 146/136/92 156/146/93 157/147/93 
f 158/134/94 159/131/95 160/132/96 161/140/96 
f 160/132/96 142/133/96 141/148/95 162/149/94 
f 162/149/94 163/137/96 164/138/96 165/139/96 
f 162/149/94 165/139/96 161/140/96 160/132/96 
f 166/141/96 158/134/94 161/140/96 
f 167/143/97 159/131/95 158/134/94 168/142/97 
f 168/142/97 158/134/94 169/144/97 
f 141/148/95 153/145/97 170/146/97 171/147/97 
f 162/149/94 141/148/95 171/147/97 
f 172/150/98 173/132/99 160/133/99 174/134/100 
f 160/133/99 159/135/98 175/136/100 176/137/99 
f 174/134/100 160/133/99 176/137/99 177/141/99 
f 177/141/99 176/137/99 178/138/99 179/139/99 
f 177/141/99 179/139/99 180/140/99 
f 181/143/101 172/150/98 174/134/100 182/142/101 
f 182/142/101 174/134/100 183/144/101 
f 175/136/100 159/135/98 167/145/101 184/147/101 
f 167/145/101 185/146/101 184/147/101 
f 186/151/102 187/152/103 145/153/104 172/154/104 
f 145/153/104 143/155/102 173/156/102 172/154/104 
f 188/157/102 189/158/102 190/159/102 191/160/103 
f 172/154/104 191/160/103 190/159/102 186/151/102 
f 186/151/102 190/159/102 192/161/102 
f 193/162/105 155/163/105 145/153/104 187/152/103 
f 193/162/105 187/152/103 194/164/105 
f 191/160/103 172/154/104 181/165/105 195/166/105 
f 191/160/103 195/166/105 196/167/105 
f 197/168/106 198/159/106 199/169/106 200/170/107 
f 201/171/106 202/172/108 203/173/109 204/174/106 
f 199/169/106 201/171/106 204/174/106 205/175/106 
f 205/175/106 206/176/110 200/170/107 199/169/106 
f 207/177/106 197/168/106 200/170/107 
f 208/178/111 209/179/111 200/170/107 206/176/110 
f 208/178/111 206/176/110 210/180/111 
f 211/181/112 212/182/112 203/173/109 213/183/112 
f 202/172/108 213/183/112 203/173/109 
f 214/184/113 215/185/113 216/186/114 206/187/115 
f 214/184/113 206/187/115 205/188/113 217/159/113 
f 217/159/113 205/188/113 218/189/113 219/190/116 
f 220/191/113 217/159/113 219/190/116 221/192/117 
f 222/193/113 220/191/113 221/192/117 
f 223/194/118 221/192/117 219/190/116 224/195/118 
f 224/195/118 219/190/116 225/196/118 
f 216/186/114 226/197/119 227/198/119 206/187/115 
f 227/198/119 210/199/119 206/187/115 
f 228/168/120 229/159/120 230/169/120 231/200/120 
f 230/169/120 232/201/120 231/200/120 
f 231/200/120 219/202/120 218/203/120 233/204/120 
f 218/203/120 234/205/120 233/204/120 
f 228/168/120 231/200/120 233/204/120 235/206/120 
f 236/177/120 228/168/120 235/206/120 
f 237/207/121 235/206/121 233/204/121 238/208/121 
f 238/208/121 233/204/121 239/209/121 
f 240/210/122 241/211/122 225/212/122 219/202/122 
f 231/200/122 240/210/122 219/202/122 
f 242/213/123 243/159/123 244/214/123 245/215/124 
f 244/214/123 246/216/123 245/215/124 
f 233/217/125 234/218/123 204/219/123 245/215/124 
f 242/213/123 245/215/124 204/219/123 247/220/126 
f 204/219/123 203/221/127 247/220/126 
f 248/222/123 242/213/123 247/220/126 
f 249/223/128 250/224/128 247/220/126 203/221/127 
f 249/223/128 203/221/127 212/225/128 
f 251/226/129 252/227/129 239/228/129 233/217/125 
f 245/215/124 251/226/129 233/217/125 
f 142/229/130 205/229/130 204/230/130 143/230/130 
f 146/231/131 202/232/132 201/233/133 147/234/134 
f 151/235/135 150/236/136 197/237/137 207/238/138 
f 144/231/139 151/239/135 207/240/138 200/241/140 
f 148/242/141 147/243/134 201/244/133 199/245/142 
f 198/246/143 149/247/143 148/248/141 199/249/142 
f 157/250/144 213/251/145 202/252/132 146/253/131 
f 212/254/146 211/255/146 156/256/146 155/257/146 
f 208/255/147 210/254/147 153/257/147 152/256/147 
f 200/258/140 209/259/148 154/260/149 144/261/139 
f 213/262/145 157/263/144 156/264/150 211/265/150 
f 154/266/149 209/267/148 208/268/151 152/269/151 
f 149/270/143 198/271/143 197/272/137 150/273/136 
f 160/229/152 218/229/152 205/230/152 142/230/152 
f 216/274/153 215/275/154 163/276/155 162/277/156 
f 222/278/157 166/279/158 161/280/159 220/281/160 
f 166/282/158 222/283/157 221/284/161 158/285/162 
f 214/286/163 164/287/164 163/288/155 215/289/154 
f 164/248/164 214/290/163 217/291/165 165/247/166 
f 216/292/153 162/293/156 171/294/167 226/295/168 
f 170/296/169 153/297/169 210/298/169 227/299/169 
f 168/296/170 224/299/170 225/300/170 167/297/170 
f 158/301/162 221/302/161 223/286/171 169/303/172 
f 171/304/167 170/305/173 227/306/173 226/307/168 
f 223/304/171 224/305/174 168/306/174 169/307/172 
f 220/308/160 161/309/159 165/310/166 217/311/165 
f 173/229/175 234/229/175 218/230/175 160/230/175 
f 176/312/176 175/313/177 231/314/177 232/315/178 
f 177/316/179 180/317/180 228/318/181 236/319/182 
f 236/320/182 235/321/183 174/322/183 177/323/179 
f 178/324/184 176/325/176 232/326/178 230/327/185 
f 178/328/184 230/329/185 229/330/186 179/331/186 
f 184/332/187 240/333/188 231/334/189 175/335/189 
f 241/255/146 185/256/146 167/257/146 225/254/146 
f 182/336/190 238/299/190 239/337/190 181/338/190 
f 174/339/191 235/340/191 237/341/192 183/342/193 
f 185/265/194 241/343/194 240/344/188 184/345/187 
f 183/346/193 237/347/192 238/348/150 182/301/150 
f 180/349/180 179/350/186 229/351/186 228/352/181 
f 204/229/195 234/230/195 173/230/195 143/229/195 
f 191/353/196 245/354/197 246/355/198 188/282/199 
f 248/287/200 186/286/201 192/289/202 242/288/203 
f 186/356/201 248/357/200 247/358/204 187/359/205 
f 188/279/199 246/278/198 244/281/206 189/280/207 
f 243/309/208 190/308/209 189/311/207 244/310/206 
f 245/360/197 191/285/196 196/361/210 251/362/211 
f 252/299/212 195/296/212 181/297/212 239/300/212 
f 249/299/213 212/300/213 155/297/213 193/296/213 
f 250/363/214 194/364/215 187/365/205 247/366/204 
f 252/306/174 251/307/211 196/304/210 195/305/174 
f 194/307/215 250/304/214 249/305/173 193/306/173 
f 242/247/203 192/291/202 190/290/209 243/248/208 
f 253/367/3 254/368/4 255/369/1 256/370/2 
f 257/371/216 258/372/8 259/373/5 260/374/217 
f 261/375/218 262/376/219 263/377/86 264/378/220 
f 265/371/16 266/374/13 267/373/14 268/372/15 
f 269/379/93 270/380/221 271/381/222 272/382/93 
f 273/372/21 274/371/22 275/374/23 276/373/24 
f 277/377/87 278/378/223 264/375/220 263/376/86 
f 261/378/218 279/375/224 280/376/225 262/377/219 
f 281/383/9 282/384/9 283/385/9 284/386/9 
f 283/385/9 285/387/9 286/388/9 287/389/9 
f 286/388/9 288/390/9 287/389/9 
f 287/389/9 289/391/9 269/392/9 284/386/9 
f 269/392/9 272/393/9 284/386/9 
f 283/385/9 287/389/9 284/386/9 
f 281/383/9 284/386/9 290/394/9 
f 291/381/226 287/382/97 288/379/97 292/380/227 
f 278/375/223 277/376/87 280/377/225 279/378/224 
f 293/381/228 285/382/101 283/379/101 294/380/229 
f 295/395/230 296/396/231 297/133/232 294/380/229 
f 296/155/231 295/397/230 298/398/233 299/155/234 
f 299/399/234 278/400/223 297/399/232 296/399/231 
f 300/396/235 301/133/236 292/380/227 302/395/237 
f 302/401/237 293/381/228 303/132/238 300/132/235 
f 300/399/235 303/399/238 279/400/224 301/399/236 
f 304/395/239 305/396/240 306/133/241 270/380/221 
f 307/132/242 305/132/240 304/401/239 291/381/226 
f 307/399/242 261/400/218 306/399/241 305/399/240 
f 308/132/243 309/401/244 271/381/222 310/132/245 
f 310/399/245 264/400/220 311/399/246 308/399/243 
f 308/402/243 311/156/246 312/403/247 309/404/244 
f 294/380/229 283/379/62 282/405/62 295/395/230 
f 281/406/31 298/398/233 295/397/230 282/407/31 
f 292/380/227 288/379/64 286/405/64 302/395/237 
f 285/382/63 293/381/228 302/401/237 286/408/63 
f 270/380/221 269/379/66 289/405/66 304/395/239 
f 287/382/65 291/381/226 304/401/239 289/408/65 
f 271/381/222 309/401/244 284/408/67 272/382/67 
f 284/409/30 309/404/244 312/403/247 290/410/30 
f 278/378/223 299/399/234 311/411/246 264/375/220 
f 298/398/233 312/403/247 311/156/246 299/155/234 
f 278/375/223 279/378/224 303/399/238 297/411/232 
f 297/133/232 303/132/238 293/381/228 294/380/229 
f 301/411/236 279/375/224 261/378/218 307/399/242 
f 301/133/236 307/132/242 291/381/226 292/380/227 
f 306/411/241 261/375/218 264/378/220 310/399/245 
f 271/381/222 270/380/221 306/133/241 310/132/245 
f 290/410/105 312/403/247 298/398/233 281/406/105 
f 313/412/76 255/412/1 265/413/16 
f 266/414/13 254/415/4 274/416/22 
f 259/417/5 256/418/2 314/419/77 
f 275/414/23 253/415/3 258/416/8 
f 268/420/15 263/421/86 315/422/78 
f 267/417/14 273/419/21 277/418/87 
f 276/417/24 257/419/216 280/418/225 
f 260/414/217 316/416/79 262/415/219 
f 315/422/78 313/423/76 265/424/16 268/420/15 
f 265/425/16 255/369/1 254/368/4 266/426/13 
f 254/368/4 253/367/3 275/427/23 274/428/22 
f 259/429/5 258/430/8 253/367/3 256/370/2 
f 256/370/2 255/369/1 313/431/76 314/432/77 
f 273/419/21 267/417/14 266/414/13 274/416/22 
f 275/414/23 258/416/8 257/419/216 276/417/24 
f 316/416/79 260/414/217 259/417/5 314/419/77 
f 316/371/79 315/374/78 263/433/86 262/434/219 
f 262/433/219 280/434/225 257/371/216 260/374/217 
f 280/435/225 277/436/87 273/372/21 276/373/24 
f 277/437/87 263/438/86 268/372/15 267/373/14 
f 314/372/77 313/373/76 315/374/78 316/371/79 
f 317/439/101 318/440/62 319/441/62 320/442/101 
f 321/443/61 322/444/61 323/445/64 324/446/64 
f 324/446/64 323/445/64 325/447/97 326/448/97 
f 326/448/97 325/447/97 327/449/65 328/450/65 
f 328/450/65 327/449/65 329/451/60 330/452/60 
f 329/451/60 331/453/66 332/454/66 330/452/60 
f 333/455/93 332/454/66 331/453/66 334/456/93 
f 333/455/93 334/456/93 335/457/67 336/458/67 
f 335/457/67 337/459/58 338/460/58 336/458/67 
f 337/459/58 339/461/30 340/462/30 338/460/58 
f 341/463/105 342/464/105 340/462/30 339/461/30 
f 341/463/105 343/465/31 344/466/31 342/464/105 
f 343/465/31 345/467/59 346/468/59 344/466/31 
f 345/467/59 319/441/62 318/440/62 346/468/59 
f 320/469/101 347/470/63 348/471/63 317/472/101 
f 348/471/63 347/470/63 322/444/61 321/443/61 
f 320/469/248 349/473/248 350/474/248 347/470/248 
f 351/475/249 350/476/249 349/477/249 352/478/249 
f 350/479/250 353/480/250 322/444/250 347/470/250 
f 354/481/251 353/482/251 350/483/251 351/475/251 
f 355/484/252 323/445/252 322/444/252 353/485/252 
f 354/481/253 356/486/253 355/487/253 353/488/253 
f 323/445/254 355/489/254 357/490/254 325/447/254 
f 357/491/255 355/492/255 356/486/255 358/493/255 
f 325/447/256 357/494/256 359/495/256 327/449/256 
f 357/496/257 358/493/257 360/497/257 359/498/257 
f 327/449/258 359/499/258 361/500/258 329/451/258 
f 359/501/259 360/497/259 362/502/259 361/503/259 
f 329/451/260 361/504/260 363/505/260 331/453/260 
f 361/506/261 362/502/261 364/507/261 363/508/261 
f 331/453/262 363/509/262 365/510/262 334/456/262 
f 363/511/263 364/507/263 366/512/263 365/513/263 
f 334/456/264 365/514/264 367/515/264 335/457/264 
f 366/512/265 368/516/265 367/517/265 365/518/265 
f 367/519/266 369/520/266 337/459/266 335/457/266 
f 370/521/267 369/522/267 367/523/267 368/516/267 
f 339/461/268 337/459/268 369/524/268 371/525/268 
f 370/521/269 372/526/269 371/527/269 369/528/269 
f 339/461/270 371/529/270 373/530/270 341/463/270 
f 373/531/271 371/532/271 372/526/271 374/533/271 
f 341/463/272 373/534/272 375/535/272 343/465/272 
f 376/536/273 375/537/273 373/538/273 374/533/273 
f 375/539/274 377/540/274 345/467/274 343/465/274 
f 378/541/275 377/542/275 375/543/275 376/536/275 
f 377/544/276 379/545/276 319/441/276 345/467/276 
f 378/541/277 380/546/277 379/547/277 377/548/277 
f 320/442/278 319/441/278 379/549/278 349/550/278 
f 379/551/279 380/546/279 352/478/279 349/552/279 
f 351/475/38 352/478/38 380/546/38 376/536/38 
f 380/546/38 378/541/38 376/536/38 
f 351/475/38 376/536/38 374/533/38 368/516/38 
f 374/533/38 372/526/38 370/521/38 368/516/38 
f 351/475/38 368/516/38 366/512/38 362/502/38 
f 366/512/38 364/507/38 362/502/38 
f 362/502/38 360/497/38 358/493/38 351/475/38 
f 351/475/38 358/493/38 356/486/38 354/481/38 
f 381/553/61 382/554/61 383/555/61 384/556/61 
f 381/554/60 384/555/60 385/556/60 386/553/60 
f 387/556/58 388/553/58 386/554/58 385/555/58 
f 388/554/59 387/555/59 383/556/59 382/553/59 
# 321 polygons - 98 triangles

