# 3ds Max Wavefront OBJ Exporter v0.99 - (c)2007 guruware
# File Created: 11.04.2025 00:21:08

mtllib Nissan_350Z_cofre.mtl

#
# object hood
#

v  0.9409 -0.5905 3.7567
v  0.0296 -0.5905 3.7863
v  0.0296 -0.7433 4.3088
v  0.8949 -0.7433 4.2792
v  0.9869 -0.4328 2.9729
v  0.0296 -0.4328 3.0025
v  1.0554 -0.2800 2.1596
v  0.0296 -0.2800 2.1892
v  1.1095 -0.1765 1.3512
v  0.0296 -0.1765 1.3808
v  0.0296 -0.0313 -0.0114
v  0.0296 -0.0976 0.5528
v  1.1576 -0.0976 0.5232
v  1.1658 -0.0313 -0.0827
v  0.0296 -0.9997 4.9346
v  0.8550 -0.9997 4.9050
v  0.0296 -1.3336 5.5545
v  0.7549 -1.3336 5.5250
v  1.3608 -0.1847 1.3376
v  1.4231 -0.1058 0.5025
v  1.2686 -0.2882 2.1460
v  1.0003 -0.7516 4.2656
v  1.4938 -0.0395 -0.0963
v  1.0857 -0.5987 3.7431
v  1.1847 -0.4410 2.9593
v  1.7155 -0.4410 2.9039
v  1.7993 -0.2882 2.0906
v  1.6164 -0.5987 3.6877
v  1.3858 -0.9997 4.8497
v  1.5311 -0.7516 4.2102
v  1.8915 -0.1847 1.2822
v  1.9538 -0.1058 0.4471
v  2.0245 -0.0395 -0.1764
v  1.2856 -1.3336 5.4696
v  1.9139 -0.9997 4.7253
v  2.0592 -0.7516 4.0859
v  2.3274 -0.2882 1.9662
v  2.4197 -0.1847 1.1578
v  2.2436 -0.4410 2.7796
v  2.1445 -0.6171 3.5633
v  2.4819 -0.1058 0.3228
v  1.8137 -1.3336 5.3452
v  2.5526 -0.0395 -0.3008
v  2.7544 -0.7164 3.5568
v  2.5993 -0.7782 3.9424
v  2.6631 -0.8045 3.8891
v  2.3611 -1.0263 4.5818
v  2.1937 -1.3336 5.2018
v  2.3623 -1.3301 5.1168
v  2.5272 -1.0361 4.5285
v  3.0569 -0.1423 0.1260
v  2.9946 -0.2212 0.9611
v  3.5199 -0.2956 0.7694
v  3.5781 -0.2167 -0.0656
v  2.8185 -0.4775 2.5828
v  3.2797 -0.7011 3.1749
v  3.3438 -0.5210 2.3912
v  2.9024 -0.3247 1.7695
v  3.4585 -0.3991 1.5778
v  3.1276 -0.0760 -0.5410
v  3.3973 -0.1261 -0.7326
v  -0.8817 -0.5905 3.7567
v  -0.8357 -0.7433 4.2792
v  -0.9277 -0.4328 2.9729
v  -0.9962 -0.2800 2.1596
v  -1.0503 -0.1765 1.3512
v  -1.1066 -0.0313 -0.0827
v  -1.0984 -0.0976 0.5232
v  -0.7958 -0.9997 4.9050
v  -0.6957 -1.3336 5.5250
v  -1.3639 -0.1058 0.5025
v  -1.3016 -0.1847 1.3376
v  -1.2094 -0.2882 2.1460
v  -0.9411 -0.7516 4.2656
v  -1.4346 -0.0395 -0.0963
v  -1.1255 -0.4410 2.9593
v  -1.0265 -0.5987 3.7431
v  -1.7401 -0.2882 2.0906
v  -1.6563 -0.4410 2.9039
v  -1.5572 -0.5987 3.6877
v  -1.4719 -0.7516 4.2102
v  -1.3265 -0.9997 4.8497
v  -1.8323 -0.1847 1.2822
v  -1.9653 -0.0395 -0.1764
v  -1.8946 -0.1058 0.4471
v  -1.2264 -1.3336 5.4696
v  -2.0000 -0.7516 4.0859
v  -1.8547 -0.9997 4.7253
v  -2.3605 -0.1847 1.1578
v  -2.2682 -0.2882 1.9662
v  -2.1844 -0.4410 2.7796
v  -2.0853 -0.6171 3.5633
v  -2.4227 -0.1058 0.3228
v  -1.7545 -1.3336 5.3452
v  -2.4934 -0.0395 -0.3008
v  -2.6952 -0.7164 3.5568
v  -2.6039 -0.8045 3.8891
v  -2.5401 -0.7782 3.9424
v  -2.3019 -1.0263 4.5818
v  -2.4680 -1.0361 4.5285
v  -2.3031 -1.3301 5.1168
v  -2.1345 -1.3336 5.2018
v  -2.9977 -0.1423 0.1260
v  -3.5189 -0.2167 -0.0656
v  -3.4607 -0.2956 0.7694
v  -2.9354 -0.2212 0.9611
v  -2.7593 -0.4775 2.5828
v  -3.2846 -0.5210 2.3912
v  -3.2205 -0.7011 3.1749
v  -2.8432 -0.3247 1.7695
v  -3.3993 -0.3991 1.5778
v  -3.0684 -0.0760 -0.5410
v  -3.3381 -0.1261 -0.7326
# 113 vertices

vn 0.0077 0.9715 0.2367
vn -0.0000 0.9707 0.2403
vn 0.0000 0.9434 0.3317
vn 0.0112 0.9448 0.3274
vn 0.0059 0.9816 0.1908
vn -0.0000 0.9815 0.1913
vn 0.0045 0.9880 0.1542
vn 0.0000 0.9877 0.1566
vn 0.0030 0.9939 0.1101
vn 0.0000 0.9938 0.1113
vn 0.0000 0.9936 0.1127
vn -0.0000 0.9946 0.1037
vn 0.0038 0.9946 0.1042
vn 0.0050 0.9936 0.1127
vn 0.0000 0.9033 0.4289
vn 0.0305 0.9026 0.4294
vn 0.0000 0.8798 0.4753
vn 0.0320 0.8782 0.4773
vn 0.0362 0.9939 0.1037
vn 0.0406 0.9925 0.1150
vn 0.0402 0.9929 0.1122
vn 0.0358 0.9938 0.1050
vn 0.0476 0.9856 0.1624
vn 0.0468 0.9865 0.1569
vn 0.1091 0.9334 0.3420
vn 0.1208 0.9159 0.3828
vn 0.1052 0.9385 0.3287
vn 0.0340 0.9932 0.1116
vn 0.0578 0.9788 0.1964
vn 0.0801 0.9647 0.2508
vn 0.0765 0.9676 0.2406
vn 0.0567 0.9791 0.1951
vn 0.0168 0.9867 0.1615
vn 0.0202 0.9808 0.1941
vn 0.0395 0.9792 0.1989
vn 0.0275 0.9868 0.1599
vn 0.0260 0.9681 0.2491
vn 0.0507 0.9682 0.2448
vn 0.0349 0.9417 0.3348
vn 0.0735 0.8994 0.4308
vn 0.0603 0.9419 0.3304
vn 0.0119 0.9934 0.1137
vn 0.0195 0.9934 0.1131
vn 0.0140 0.9939 0.1095
vn 0.0117 0.9948 0.1012
vn 0.0179 0.9946 0.1019
vn 0.0209 0.9938 0.1090
vn 0.0761 0.8727 0.4823
vn 0.1406 0.8886 0.4367
vn 0.1202 0.9366 0.3291
vn 0.0789 0.9832 0.1644
vn 0.0660 0.9909 0.1172
vn 0.0987 0.9722 0.2121
vn 0.1088 0.9644 0.2410
vn 0.0620 0.9926 0.1044
vn 0.1442 0.8625 0.4850
vn 0.0759 0.9909 0.1115
vn 0.5938 0.7223 0.3545
vn 0.3888 0.8280 0.4041
vn 0.5227 0.7657 0.3749
vn 0.2515 0.8510 0.4610
vn 0.2155 0.8493 0.4819
vn 0.2881 0.8513 0.4385
vn 0.1441 0.9839 0.1057
vn 0.1424 0.9823 0.1218
vn 0.1802 0.9764 0.1190
vn 0.1914 0.9763 0.1010
vn 0.1495 0.9649 0.2161
vn 0.1479 0.9591 0.2414
vn 0.1566 0.9581 0.2398
vn 0.1658 0.9647 0.2046
vn 0.1462 0.9755 0.1643
vn 0.1794 0.9711 0.1576
vn 0.1704 0.9800 0.1030
vn 0.2011 0.9747 0.0980
vn 0.1750 0.8867 0.4279
vn 0.1462 0.9446 0.2939
vn 0.1951 0.8534 0.4834
vn -0.0077 0.9715 0.2367
vn -0.0112 0.9448 0.3274
vn -0.0059 0.9816 0.1908
vn -0.0045 0.9880 0.1542
vn -0.0030 0.9939 0.1101
vn -0.0050 0.9936 0.1127
vn -0.0038 0.9946 0.1042
vn -0.0305 0.9026 0.4294
vn -0.0320 0.8782 0.4773
vn -0.0362 0.9939 0.1037
vn -0.0358 0.9938 0.1050
vn -0.0402 0.9929 0.1122
vn -0.0406 0.9925 0.1150
vn -0.0468 0.9865 0.1569
vn -0.0476 0.9856 0.1624
vn -0.1091 0.9334 0.3420
vn -0.1052 0.9385 0.3287
vn -0.1208 0.9159 0.3828
vn -0.0340 0.9932 0.1116
vn -0.0578 0.9788 0.1964
vn -0.0567 0.9791 0.1951
vn -0.0765 0.9676 0.2406
vn -0.0801 0.9647 0.2508
vn -0.0168 0.9867 0.1615
vn -0.0275 0.9868 0.1599
vn -0.0395 0.9792 0.1989
vn -0.0202 0.9808 0.1941
vn -0.0507 0.9682 0.2448
vn -0.0260 0.9681 0.2491
vn -0.0349 0.9417 0.3348
vn -0.0603 0.9419 0.3304
vn -0.0735 0.8994 0.4308
vn -0.0119 0.9934 0.1137
vn -0.0195 0.9934 0.1131
vn -0.0140 0.9939 0.1095
vn -0.0209 0.9938 0.1090
vn -0.0179 0.9946 0.1019
vn -0.0117 0.9948 0.1012
vn -0.0761 0.8727 0.4823
vn -0.1202 0.9366 0.3291
vn -0.1406 0.8886 0.4367
vn -0.0660 0.9909 0.1172
vn -0.0789 0.9832 0.1644
vn -0.0987 0.9722 0.2121
vn -0.1088 0.9644 0.2410
vn -0.0620 0.9926 0.1044
vn -0.1442 0.8625 0.4850
vn -0.0759 0.9909 0.1115
vn -0.5938 0.7223 0.3545
vn -0.5227 0.7657 0.3749
vn -0.3888 0.8280 0.4041
vn -0.2515 0.8510 0.4610
vn -0.2881 0.8513 0.4385
vn -0.2155 0.8493 0.4819
vn -0.1441 0.9839 0.1057
vn -0.1914 0.9763 0.1010
vn -0.1802 0.9764 0.1190
vn -0.1424 0.9823 0.1218
vn -0.1495 0.9649 0.2161
vn -0.1658 0.9647 0.2046
vn -0.1566 0.9581 0.2398
vn -0.1479 0.9591 0.2414
vn -0.1462 0.9755 0.1643
vn -0.1794 0.9711 0.1576
vn -0.1704 0.9800 0.1030
vn -0.2011 0.9747 0.0980
vn -0.1462 0.9446 0.2939
vn -0.1750 0.8867 0.4279
vn -0.1951 0.8534 0.4834
# 147 vertex normals

vt 0.7555 0.4888 0.0000
vt 0.7038 0.4743 0.0000
vt 0.7243 0.4505 0.0000
vt 0.7733 0.4643 0.0000
vt 0.7274 0.5251 0.0000
vt 0.6730 0.5100 0.0000
vt 0.6994 0.5632 0.0000
vt 0.6411 0.5470 0.0000
vt 0.6709 0.6008 0.0000
vt 0.6094 0.5839 0.0000
vt 0.5548 0.6473 0.0000
vt 0.5769 0.6216 0.0000
vt 0.6412 0.6392 0.0000
vt 0.6179 0.6669 0.0000
vt 0.7488 0.4220 0.0000
vt 0.7955 0.4353 0.0000
vt 0.7731 0.3938 0.0000
vt 0.8140 0.4056 0.0000
vt 0.6849 0.6050 0.0000
vt 0.6558 0.6440 0.0000
vt 0.7113 0.5669 0.0000
vt 0.7789 0.4665 0.0000
vt 0.6364 0.6722 0.0000
vt 0.7633 0.4915 0.0000
vt 0.7383 0.5286 0.0000
vt 0.7669 0.5388 0.0000
vt 0.7399 0.5771 0.0000
vt 0.7919 0.5017 0.0000
vt 0.8241 0.4454 0.0000
vt 0.8075 0.4766 0.0000
vt 0.7135 0.6152 0.0000
vt 0.6844 0.6541 0.0000
vt 0.6640 0.6836 0.0000
vt 0.8426 0.4157 0.0000
vt 0.8499 0.4587 0.0000
vt 0.8332 0.4899 0.0000
vt 0.7656 0.5903 0.0000
vt 0.7393 0.6285 0.0000
vt 0.7927 0.5521 0.0000
vt 0.8177 0.5150 0.0000
vt 0.7101 0.6674 0.0000
vt 0.8684 0.4290 0.0000
vt 0.6897 0.6968 0.0000
vt 0.8528 0.5241 0.0000
vt 0.8589 0.5043 0.0000
vt 0.8605 0.5076 0.0000
vt 0.8702 0.4717 0.0000
vt 0.8848 0.4410 0.0000
vt 0.8912 0.4473 0.0000
vt 0.8777 0.4765 0.0000
vt 0.7357 0.6847 0.0000
vt 0.7649 0.6457 0.0000
vt 0.7878 0.6620 0.0000
vt 0.7584 0.7009 0.0000
vt 0.8183 0.5693 0.0000
vt 0.8682 0.5490 0.0000
vt 0.8412 0.5856 0.0000
vt 0.7912 0.6076 0.0000
vt 0.8160 0.6243 0.0000
vt 0.7137 0.7161 0.0000
vt 0.7218 0.7287 0.0000
vt 0.6498 0.4625 0.0000
vt 0.6729 0.4394 0.0000
vt 0.6164 0.4975 0.0000
vt 0.5805 0.5336 0.0000
vt 0.5456 0.5696 0.0000
vt 0.4861 0.6341 0.0000
vt 0.5104 0.6066 0.0000
vt 0.6998 0.4114 0.0000
vt 0.7299 0.3846 0.0000
vt 0.4942 0.6038 0.0000
vt 0.5305 0.5666 0.0000
vt 0.5676 0.5311 0.0000
vt 0.6663 0.4385 0.0000
vt 0.4666 0.6300 0.0000
vt 0.6044 0.4953 0.0000
vt 0.6409 0.4610 0.0000
vt 0.5347 0.5260 0.0000
vt 0.5714 0.4902 0.0000
vt 0.6079 0.4559 0.0000
vt 0.6334 0.4333 0.0000
vt 0.6669 0.4063 0.0000
vt 0.4976 0.5615 0.0000
vt 0.4327 0.6260 0.0000
vt 0.4612 0.5986 0.0000
vt 0.6970 0.3795 0.0000
vt 0.5979 0.4314 0.0000
vt 0.6314 0.4044 0.0000
vt 0.4621 0.5595 0.0000
vt 0.4992 0.5240 0.0000
vt 0.5359 0.4882 0.0000
vt 0.5724 0.4539 0.0000
vt 0.4257 0.5967 0.0000
vt 0.6615 0.3776 0.0000
vt 0.3972 0.6240 0.0000
vt 0.5368 0.4454 0.0000
vt 0.5551 0.4316 0.0000
vt 0.5609 0.4301 0.0000
vt 0.5998 0.4044 0.0000
vt 0.5881 0.4045 0.0000
vt 0.6207 0.3801 0.0000
vt 0.6338 0.3786 0.0000
vt 0.3847 0.5973 0.0000
vt 0.3469 0.5985 0.0000
vt 0.3831 0.5614 0.0000
vt 0.4210 0.5602 0.0000
vt 0.4949 0.4889 0.0000
vt 0.4569 0.4900 0.0000
vt 0.4914 0.4553 0.0000
vt 0.4581 0.5247 0.0000
vt 0.4183 0.5254 0.0000
vt 0.3544 0.6267 0.0000
vt 0.3313 0.6315 0.0000
# 113 texture coords

o hood
g hood
usemtl 07___Default
s off
f 1/1/1 2/2/2 3/3/3 4/4/4 
f 5/5/5 6/6/6 2/2/2 1/1/1 
f 7/7/7 8/8/8 6/6/6 5/5/5 
f 9/9/9 10/10/10 8/8/8 7/7/7 
f 11/11/11 12/12/12 13/13/13 14/14/14 
f 13/13/13 12/12/12 10/10/10 9/9/9 
f 4/4/4 3/3/3 15/15/15 16/16/16 
f 16/16/16 15/15/15 17/17/17 18/18/18 
f 13/13/19 9/9/20 19/19/21 20/20/22 
f 9/9/20 7/7/23 21/21/24 19/19/21 
f 4/4/25 16/16/26 22/22/27 
f 14/14/28 13/13/19 20/20/22 23/23/28 
f 5/5/29 1/1/30 24/24/31 25/25/32 
f 21/21/33 25/25/34 26/26/35 27/27/36 
f 1/1/30 4/4/25 22/22/27 24/24/31 
f 7/7/23 5/5/29 25/25/32 21/21/24 
f 25/25/34 24/24/37 28/28/38 26/26/35 
f 22/22/39 16/16/16 29/29/40 30/30/41 
f 19/19/42 21/21/33 27/27/36 31/31/43 
f 23/23/44 20/20/45 32/32/46 33/33/47 
f 24/24/37 22/22/39 30/30/41 28/28/38 
f 16/16/16 18/18/18 34/34/48 29/29/40 
f 20/20/45 19/19/42 31/31/43 32/32/46 
f 30/30/41 29/29/40 35/35/49 36/36/50 
f 31/31/43 27/27/36 37/37/51 38/38/52 
f 27/27/36 26/26/35 39/39/53 37/37/51 
f 26/26/35 28/28/38 40/40/54 39/39/53 
f 32/32/46 31/31/43 38/38/52 41/41/55 
f 29/29/40 34/34/48 42/42/56 35/35/49 
f 33/33/47 32/32/46 41/41/55 43/43/57 
f 28/28/38 30/30/41 36/36/50 40/40/54 
f 44/44/58 45/45/59 46/46/60 
f 47/47/61 48/48/62 49/49/62 50/50/63 
f 45/45/59 47/47/61 50/50/63 46/46/60 
f 51/51/64 52/52/65 53/53/66 54/54/67 
f 55/55/68 44/44/69 56/56/70 57/57/71 
f 58/58/72 55/55/68 57/57/71 59/59/73 
f 52/52/65 58/58/72 59/59/73 53/53/66 
f 60/60/74 51/51/64 54/54/67 61/61/75 
f 36/36/50 35/35/49 47/47/76 45/45/77 
f 37/37/51 39/39/53 55/55/68 58/58/72 
f 39/39/53 40/40/54 44/44/69 55/55/68 
f 35/35/49 42/42/56 48/48/78 47/47/76 
f 41/41/55 38/38/52 52/52/65 51/51/64 
f 43/43/57 41/41/55 51/51/64 60/60/74 
f 40/40/54 36/36/50 45/45/77 44/44/69 
f 38/38/52 37/37/51 58/58/72 52/52/65 
f 62/62/79 63/63/80 3/3/3 2/2/2 
f 64/64/81 62/62/79 2/2/2 6/6/6 
f 65/65/82 64/64/81 6/6/6 8/8/8 
f 66/66/83 65/65/82 8/8/8 10/10/10 
f 11/11/11 67/67/84 68/68/85 12/12/12 
f 68/68/85 66/66/83 10/10/10 12/12/12 
f 63/63/80 69/69/86 15/15/15 3/3/3 
f 69/69/86 70/70/87 17/17/17 15/15/15 
f 68/68/88 71/71/89 72/72/90 66/66/91 
f 66/66/91 72/72/90 73/73/92 65/65/93 
f 63/63/94 74/74/95 69/69/96 
f 67/67/97 75/75/97 71/71/89 68/68/88 
f 64/64/98 76/76/99 77/77/100 62/62/101 
f 73/73/102 78/78/103 79/79/104 76/76/105 
f 62/62/101 77/77/100 74/74/95 63/63/94 
f 65/65/93 73/73/92 76/76/99 64/64/98 
f 76/76/105 79/79/104 80/80/106 77/77/107 
f 74/74/108 81/81/109 82/82/110 69/69/86 
f 72/72/111 83/83/112 78/78/103 73/73/102 
f 75/75/113 84/84/114 85/85/115 71/71/116 
f 77/77/107 80/80/106 81/81/109 74/74/108 
f 69/69/86 82/82/110 86/86/117 70/70/87 
f 71/71/116 85/85/115 83/83/112 72/72/111 
f 81/81/109 87/87/118 88/88/119 82/82/110 
f 83/83/112 89/89/120 90/90/121 78/78/103 
f 78/78/103 90/90/121 91/91/122 79/79/104 
f 79/79/104 91/91/122 92/92/123 80/80/106 
f 85/85/115 93/93/124 89/89/120 83/83/112 
f 82/82/110 88/88/119 94/94/125 86/86/117 
f 84/84/114 95/95/126 93/93/124 85/85/115 
f 80/80/106 92/92/123 87/87/118 81/81/109 
f 96/96/127 97/97/128 98/98/129 
f 99/99/130 100/100/131 101/101/132 102/102/132 
f 98/98/129 97/97/128 100/100/131 99/99/130 
f 103/103/133 104/104/134 105/105/135 106/106/136 
f 107/107/137 108/108/138 109/109/139 96/96/140 
f 110/110/141 111/111/142 108/108/138 107/107/137 
f 106/106/136 105/105/135 111/111/142 110/110/141 
f 112/112/143 113/113/144 104/104/134 103/103/133 
f 87/87/118 98/98/145 99/99/146 88/88/119 
f 90/90/121 110/110/141 107/107/137 91/91/122 
f 91/91/122 107/107/137 96/96/140 92/92/123 
f 88/88/119 99/99/146 102/102/147 94/94/125 
f 93/93/124 103/103/133 106/106/136 89/89/120 
f 95/95/126 112/112/143 103/103/133 93/93/124 
f 92/92/123 96/96/140 98/98/145 87/87/118 
f 89/89/120 106/106/136 110/110/141 90/90/121 
# 90 polygons - 4 triangles

